<svg xmlns="http://www.w3.org/2000/svg" width="840" height="479" fill="none"><rect width="839" height="478" x=".5" y=".5" fill="#0D0D0D" rx="3.5"/><rect width="839" height="478" x=".5" y=".5" stroke="#282828" rx="3.5"/><path fill="#fff" d="m20.28 39 5.42-13.94h1.58L32.68 39h-2.22L26.5 28.02 22.52 39h-2.24Zm3.2-3.1.62-1.82h4.76l.68 1.82h-6.06ZM35.315 39l-4.04-9.86h2.16l2.68 7.32 2.72-7.32h2.12l-4 9.86h-1.64Zm10.394.18c-.8 0-1.493-.133-2.08-.4a4.028 4.028 0 0 1-1.46-1.1 5.16 5.16 0 0 1-.88-1.62 6.556 6.556 0 0 1-.28-1.92c0-.667.094-1.307.28-1.92.187-.627.467-1.18.84-1.66a3.95 3.95 0 0 1 1.4-1.16c.574-.293 1.247-.44 2.02-.44.774 0 1.44.133 2 .4.56.253 1.02.613 1.38 1.08.36.453.627.967.8 1.54.187.573.28 1.18.28 1.82 0 .067-.006.193-.02.38 0 .173-.013.34-.04.5h-6.98c.04.88.307 1.56.8 2.04.507.467 1.174.7 2 .7.56 0 1.06-.087 1.5-.26a3.71 3.71 0 0 0 1.22-.86l1.2 1.24a5.89 5.89 0 0 1-1.2.94c-.4.24-.826.413-1.28.52-.44.12-.94.18-1.5.18Zm2.36-5.48c.027-.107.04-.213.04-.32a2.584 2.584 0 0 0-.14-1.22 2.248 2.248 0 0 0-.48-.78 2.167 2.167 0 0 0-.8-.56c-.306-.147-.666-.22-1.08-.22-.546 0-1.013.127-1.4.38a2.49 2.49 0 0 0-.9.96c-.2.4-.32.833-.36 1.3h5.76l-.64.46ZM51.27 39v-9.86h1.98v2.66l-.42.08a2.956 2.956 0 0 1 .6-1.52 3.7 3.7 0 0 1 1.22-1.02c.467-.253.927-.38 1.38-.38.32 0 .62.04.9.12.294.067.587.187.88.36l-.96 1.76a2.26 2.26 0 0 0-.56-.2 2.614 2.614 0 0 0-1.54.08 2.18 2.18 0 0 0-.8.52c-.227.24-.4.553-.52.94-.053.187-.1.433-.14.74-.026.293-.04.7-.04 1.22V39h-1.98Zm13.467 0-.16-1.82V32.8c0-.693-.2-1.227-.6-1.6-.4-.373-.98-.56-1.74-.56a3.85 3.85 0 0 0-1.54.32c-.48.213-.94.56-1.38 1.04l-1.22-1.26c.587-.613 1.234-1.06 1.94-1.34a6.15 6.15 0 0 1 2.34-.44c1.32 0 2.34.34 3.06 1.02.734.667 1.1 1.607 1.1 2.82V39h-1.8Zm-3.18.18c-.733 0-1.38-.133-1.94-.4s-.993-.633-1.3-1.1c-.306-.48-.46-1.033-.46-1.66 0-.547.114-1.013.34-1.4.227-.4.52-.707.88-.92.334-.213.714-.36 1.14-.44.44-.093.907-.14 1.4-.14h3.14v1.48h-2.86c-.266 0-.546.027-.84.08-.28.04-.52.133-.72.28-.16.12-.286.273-.38.46a1.29 1.29 0 0 0-.14.62c0 .467.18.84.54 1.12.36.28.84.42 1.44.42.507 0 .967-.113 1.38-.34.427-.24.767-.56 1.02-.96.254-.413.38-.88.38-1.4l.7.92c-.12.693-.353 1.3-.7 1.82-.346.507-.78.893-1.3 1.16-.506.267-1.08.4-1.72.4Zm10.62 4.08c-1.426 0-2.56-.26-3.4-.78-.826-.52-1.24-1.24-1.24-2.16v-.26c.014-.107.034-.213.06-.32l2.56-1.76.6.5-1.36 1.68a.548.548 0 0 0-.02.12v.12c0 .48.267.84.8 1.08.534.24 1.2.36 2 .36.707 0 1.28-.1 1.72-.3.44-.187.66-.493.66-.92a.8.8 0 0 0-.2-.56c-.133-.147-.333-.267-.6-.36a8.736 8.736 0 0 0-.96-.22c-.36-.053-.78-.113-1.26-.18a12.797 12.797 0 0 1-1.78-.4c-.573-.173-1.046-.427-1.42-.76-.373-.347-.56-.8-.56-1.36 0-.48.167-.92.5-1.32a3.804 3.804 0 0 1 1.34-1l1.12.78c-.413.093-.713.247-.9.46-.186.2-.28.447-.28.74 0 .24.087.433.26.58.187.147.447.26.78.34.334.08.734.153 1.2.22.654.093 1.26.193 1.82.3.574.107 1.074.26 1.5.46.44.187.774.44 1 .76.24.333.36.76.36 1.28 0 .933-.38 1.647-1.14 2.14-.746.493-1.8.74-3.16.74Zm-.22-7.24c-.786 0-1.48-.147-2.08-.44a3.56 3.56 0 0 1-1.38-1.24c-.333-.533-.5-1.14-.5-1.82 0-.707.174-1.327.52-1.86a3.505 3.505 0 0 1 1.4-1.24c.6-.307 1.26-.46 1.98-.46a4.08 4.08 0 0 1 1.92.46c.6.293 1.074.713 1.42 1.26.36.547.54 1.187.54 1.92 0 .693-.166 1.3-.5 1.82-.32.507-.766.9-1.34 1.18-.573.28-1.233.42-1.98.42Zm-.04-1.56c.614 0 1.087-.187 1.42-.56.334-.387.5-.853.5-1.4 0-.587-.18-1.053-.54-1.4-.346-.36-.806-.54-1.38-.54-.6 0-1.08.18-1.44.54-.36.36-.54.82-.54 1.38 0 .56.174 1.033.52 1.42.347.373.834.56 1.46.56Zm3.22-3.4-1.42-.94 2.16-1.74.98 1.22-1.72 1.46Zm6.377 8.12c-.8 0-1.493-.133-2.08-.4a4.028 4.028 0 0 1-1.46-1.1 5.16 5.16 0 0 1-.88-1.62 6.556 6.556 0 0 1-.28-1.92c0-.667.093-1.307.28-1.92.187-.627.467-1.18.84-1.66.373-.493.84-.88 1.4-1.16.573-.293 1.247-.44 2.02-.44.773 0 1.44.133 2 .4.56.253 1.02.613 1.38 1.08.36.453.627.967.8 1.54.187.573.28 1.18.28 1.82 0 .067-.007.193-.02.38 0 .173-.013.34-.04.5h-6.98c.04.88.307 1.56.8 2.04.507.467 1.173.7 2 .7.56 0 1.06-.087 1.5-.26a3.71 3.71 0 0 0 1.22-.86l1.2 1.24a5.89 5.89 0 0 1-1.2.94c-.4.24-.827.413-1.28.52-.44.12-.94.18-1.5.18Zm2.36-5.48c.027-.107.04-.213.04-.32a2.584 2.584 0 0 0-.14-1.22 2.248 2.248 0 0 0-.48-.78 2.167 2.167 0 0 0-.8-.56c-.307-.147-.667-.22-1.08-.22-.547 0-1.013.127-1.4.38a2.49 2.49 0 0 0-.9.96c-.2.4-.32.833-.36 1.3h5.76l-.64.46ZM91.41 39V25.06h9.22v1.82h-7.18v4.08h6.58v1.82h-6.58v4.4h7.18V39h-9.22Zm10.52 0v-9.86h1.98v2.54l-.42.14c.12-.52.287-.96.5-1.32.214-.36.46-.653.74-.88.294-.227.607-.393.94-.5.334-.107.674-.16 1.02-.16.574 0 1.087.113 1.54.34.467.213.854.553 1.16 1.02.32.453.534 1.053.64 1.8l-1.12.22c.2-.773.46-1.407.78-1.9.334-.493.734-.86 1.2-1.1.48-.253 1.027-.38 1.64-.38.827 0 1.487.187 1.98.56.507.373.874.86 1.1 1.46.24.587.36 1.233.36 1.94V39h-1.94v-5.6c0-.573-.066-1.06-.2-1.46-.133-.413-.34-.727-.62-.94-.28-.227-.653-.34-1.12-.34-.453 0-.84.12-1.16.36-.32.227-.566.573-.74 1.04-.16.467-.24 1.047-.24 1.74V39h-1.96v-5.72c0-.88-.166-1.533-.5-1.96-.32-.44-.786-.66-1.4-.66-.453 0-.846.12-1.18.36-.32.227-.566.573-.74 1.04-.173.467-.26 1.047-.26 1.74V39h-1.98Zm22.1 0-.16-1.82V32.8c0-.693-.2-1.227-.6-1.6-.4-.373-.98-.56-1.74-.56a3.85 3.85 0 0 0-1.54.32c-.48.213-.94.56-1.38 1.04l-1.22-1.26c.587-.613 1.234-1.06 1.94-1.34a6.15 6.15 0 0 1 2.34-.44c1.32 0 2.34.34 3.06 1.02.734.667 1.1 1.607 1.1 2.82V39h-1.8Zm-3.18.18c-.733 0-1.38-.133-1.94-.4s-.993-.633-1.3-1.1c-.306-.48-.46-1.033-.46-1.66 0-.547.114-1.013.34-1.4.227-.4.52-.707.88-.92.334-.213.714-.36 1.14-.44a6.74 6.74 0 0 1 1.4-.14h3.14v1.48h-2.86c-.266 0-.546.027-.84.08-.28.04-.52.133-.72.28-.16.12-.286.273-.38.46-.093.173-.14.38-.14.62 0 .467.18.84.54 1.12.36.28.84.42 1.44.42a2.82 2.82 0 0 0 1.38-.34c.427-.24.767-.56 1.02-.96.254-.413.38-.88.38-1.4l.7.92c-.12.693-.353 1.3-.7 1.82-.346.507-.78.893-1.3 1.16-.506.267-1.08.4-1.72.4Zm6.56-.18v-9.86h1.96V39h-1.96Zm-.14-11.56v-2.38h2.22v2.38h-2.22Zm5.909 11.74c-.627 0-1.14-.193-1.54-.58-.4-.387-.6-1-.6-1.84v-11.7h1.94v11.32c0 .347.073.6.22.76.16.147.366.22.62.22.106 0 .226-.007.36-.02.146-.027.293-.067.44-.12v1.66a2.94 2.94 0 0 1-.76.22c-.254.053-.48.08-.68.08Zm12.546.08c-1.293 0-2.433-.3-3.42-.9-.973-.6-1.733-1.44-2.28-2.52-.547-1.093-.82-2.36-.82-3.8 0-1.453.273-2.72.82-3.8.547-1.093 1.307-1.94 2.28-2.54.987-.6 2.127-.9 3.42-.9 1.32 0 2.473.3 3.46.9.987.6 1.753 1.447 2.3 2.54.547 1.08.82 2.347.82 3.8 0 1.44-.28 2.707-.84 3.8-.547 1.08-1.313 1.92-2.3 2.52-.987.6-2.133.9-3.44.9Zm0-1.94c.933 0 1.733-.213 2.4-.64.667-.44 1.187-1.053 1.56-1.84.373-.8.56-1.733.56-2.8 0-1.08-.187-2.013-.56-2.8-.373-.8-.893-1.413-1.56-1.84-.667-.44-1.467-.66-2.4-.66-.907 0-1.7.213-2.38.64-.667.427-1.187 1.04-1.56 1.84-.36.787-.54 1.727-.54 2.82 0 1.08.18 2.02.54 2.82.373.787.893 1.393 1.56 1.82.68.427 1.473.64 2.38.64Zm7.881 5.76V29.14h1.96v2.84l-.56-.18c.173-.653.427-1.187.76-1.6.347-.413.76-.72 1.24-.92a3.896 3.896 0 0 1 1.6-.32c.88 0 1.647.227 2.3.68.667.44 1.18 1.047 1.54 1.82.36.773.54 1.647.54 2.62 0 1.04-.193 1.947-.58 2.72-.387.76-.913 1.347-1.58 1.76a4.131 4.131 0 0 1-2.22.62 3.83 3.83 0 0 1-1.62-.34 3.526 3.526 0 0 1-1.22-.94 3.629 3.629 0 0 1-.7-1.46l.5-.28v6.92h-1.96Zm4.58-5.7c.573 0 1.067-.133 1.48-.4.427-.28.76-.667 1-1.16.24-.507.36-1.087.36-1.74s-.12-1.227-.36-1.72a2.81 2.81 0 0 0-1-1.18c-.413-.28-.907-.42-1.48-.42-.56 0-1.053.14-1.48.42-.413.28-.74.673-.98 1.18-.227.493-.34 1.067-.34 1.72s.113 1.233.34 1.74c.24.493.567.88.98 1.16.427.267.92.4 1.48.4Zm10.32 1.8c-.8 0-1.493-.133-2.08-.4a4.037 4.037 0 0 1-1.46-1.1 5.174 5.174 0 0 1-.88-1.62 6.58 6.58 0 0 1-.28-1.92c0-.667.094-1.307.28-1.92a5.01 5.01 0 0 1 .84-1.66 3.95 3.95 0 0 1 1.4-1.16c.574-.293 1.247-.44 2.02-.44.774 0 1.44.133 2 .4.56.253 1.02.613 1.38 1.08.36.453.627.967.8 1.54.187.573.28 1.18.28 1.82 0 .067-.006.193-.02.38 0 .173-.013.34-.04.5h-6.98c.04.88.307 1.56.8 2.04.507.467 1.174.7 2 .7.56 0 1.06-.087 1.5-.26a3.71 3.71 0 0 0 1.22-.86l1.2 1.24c-.386.387-.786.7-1.2.94-.4.24-.826.413-1.28.52-.44.12-.94.18-1.5.18Zm2.36-5.48c.027-.107.04-.213.04-.32a2.606 2.606 0 0 0-.14-1.22 2.227 2.227 0 0 0-.48-.78 2.164 2.164 0 0 0-.8-.56c-.306-.147-.666-.22-1.08-.22-.546 0-1.013.127-1.4.38-.386.24-.686.56-.9.96-.2.4-.32.833-.36 1.3h5.76l-.64.46Zm3.201 5.3v-9.86h1.98v2.14l-.4.12c.173-.547.42-.993.74-1.34.333-.36.72-.633 1.16-.82a3.79 3.79 0 0 1 1.46-.28c1.093 0 1.947.32 2.56.96.627.627.94 1.547.94 2.76V39h-1.96v-5.6c0-.947-.173-1.64-.52-2.08-.333-.44-.853-.66-1.56-.66-.533 0-.98.12-1.34.36-.347.24-.613.62-.8 1.14-.187.52-.28 1.18-.28 1.98V39h-1.98Zm14.39 0V25.06h4.3c1.093 0 1.98.16 2.66.48.693.32 1.2.78 1.52 1.38.333.587.5 1.287.5 2.1 0 1.2-.347 2.14-1.04 2.82-.68.68-1.667 1.073-2.96 1.18-.227.013-.487.02-.78.02h-2.16V39h-2.04Zm7.72 0-3.58-6.2 2.08-.26 3.84 6.46h-2.34Zm-5.68-7.76h2.06c.56 0 1.047-.067 1.46-.2a2.16 2.16 0 0 0 1.02-.7c.253-.32.38-.753.38-1.3s-.127-.973-.38-1.28a2.035 2.035 0 0 0-1.02-.68 4.894 4.894 0 0 0-1.46-.2h-2.06v4.36ZM205.788 39l-.16-1.82V32.8c0-.693-.2-1.227-.6-1.6-.4-.373-.98-.56-1.74-.56a3.85 3.85 0 0 0-1.54.32c-.48.213-.94.56-1.38 1.04l-1.22-1.26c.587-.613 1.234-1.06 1.94-1.34a6.15 6.15 0 0 1 2.34-.44c1.32 0 2.34.34 3.06 1.02.734.667 1.1 1.607 1.1 2.82V39h-1.8Zm-3.18.18c-.733 0-1.38-.133-1.94-.4s-.993-.633-1.3-1.1c-.306-.48-.46-1.033-.46-1.66 0-.547.114-1.013.34-1.4.227-.4.52-.707.88-.92.334-.213.714-.36 1.14-.44a6.74 6.74 0 0 1 1.4-.14h3.14v1.48h-2.86c-.266 0-.546.027-.84.08-.28.04-.52.133-.72.28-.16.12-.286.273-.38.46-.093.173-.14.38-.14.62 0 .467.18.84.54 1.12.36.28.84.42 1.44.42a2.82 2.82 0 0 0 1.38-.34c.427-.24.767-.56 1.02-.96.254-.413.38-.88.38-1.4l.7.92c-.12.693-.353 1.3-.7 1.82-.346.507-.78.893-1.3 1.16-.506.267-1.08.4-1.72.4Zm10.02 0c-.48 0-.927-.093-1.34-.28-.4-.187-.72-.487-.96-.9-.227-.427-.34-.973-.34-1.64v-9.74l1.98-1.1v10.32c0 .547.08.973.24 1.28.173.293.487.44.94.44.133 0 .287-.013.46-.04.187-.04.387-.087.6-.14v1.52c-.267.093-.533.16-.8.2a3.98 3.98 0 0 1-.78.08Zm-4.6-8.52v-1.52h6.18v1.52h-6.18Zm11.256 8.52c-.8 0-1.494-.133-2.08-.4a4.02 4.02 0 0 1-1.46-1.1 5.154 5.154 0 0 1-.88-1.62 6.546 6.546 0 0 1-.28-1.92c0-.667.093-1.307.28-1.92a4.97 4.97 0 0 1 .84-1.66c.373-.493.84-.88 1.4-1.16.573-.293 1.246-.44 2.02-.44.773 0 1.44.133 2 .4.56.253 1.02.613 1.38 1.08.36.453.626.967.8 1.54.186.573.28 1.18.28 1.82 0 .067-.007.193-.02.38 0 .173-.014.34-.04.5h-6.98c.04.88.306 1.56.8 2.04.506.467 1.173.7 2 .7.56 0 1.06-.087 1.5-.26a3.72 3.72 0 0 0 1.22-.86l1.2 1.24c-.387.387-.787.7-1.2.94-.4.24-.827.413-1.28.52-.44.12-.94.18-1.5.18Zm2.36-5.48c.026-.107.04-.213.04-.32a2.63 2.63 0 0 0-.14-1.22 2.257 2.257 0 0 0-.48-.78 2.172 2.172 0 0 0-.8-.56c-.307-.147-.667-.22-1.08-.22-.547 0-1.014.127-1.4.38-.387.24-.687.56-.9.96-.2.4-.32.833-.36 1.3h5.76l-.64.46ZM30.528 67.484 25.6 75.268l-.336-.42c.392-.243.803-.42 1.232-.532.43-.13.85-.196 1.26-.196 1.232 0 2.343.29 3.332.868a6.247 6.247 0 0 1 2.324 2.352c.579.97.868 2.063.868 3.276 0 1.27-.317 2.408-.952 3.416a6.708 6.708 0 0 1-2.492 2.352c-1.027.579-2.175.868-3.444.868a7.15 7.15 0 0 1-3.472-.868 6.934 6.934 0 0 1-2.52-2.352c-.616-1.008-.924-2.137-.924-3.388 0-.653.093-1.279.28-1.876a9.13 9.13 0 0 1 .784-1.736l5.852-9.548h3.136Zm-3.136 9.044c-.747 0-1.428.177-2.044.532a4.101 4.101 0 0 0-1.512 1.428c-.373.616-.56 1.325-.56 2.128 0 .765.187 1.456.56 2.072a4.108 4.108 0 0 0 1.484 1.456 4.36 4.36 0 0 0 2.072.504c.765 0 1.456-.168 2.072-.504a4.108 4.108 0 0 0 1.484-1.456c.373-.616.56-1.316.56-2.1s-.187-1.484-.56-2.1a3.693 3.693 0 0 0-1.456-1.428c-.616-.355-1.316-.532-2.1-.532ZM43.704 87v-4.62h-9.072v-2.156l9.352-12.74h2.492v12.32h3.108v2.576h-3.108V87h-2.772Zm-6.832-6.216-.14-.98h6.972v-9.408l.364.308-7.196 10.08Zm12.336 10.472 2.38-8.456h3.052l-3.584 8.456h-1.848ZM55.15 87v-2.184a73.243 73.243 0 0 1 2.211-1.68c.84-.616 1.69-1.288 2.548-2.016a23.994 23.994 0 0 0 2.437-2.324 11.449 11.449 0 0 0 1.791-2.576c.467-.915.7-1.848.7-2.8 0-1.027-.28-1.857-.84-2.492-.56-.653-1.4-.98-2.52-.98-.84 0-1.54.196-2.1.588-.54.392-.942.924-1.203 1.596-.262.672-.402 1.419-.42 2.24l-2.689-.196c0-.915.14-1.783.42-2.604a6.61 6.61 0 0 1 1.233-2.184 5.975 5.975 0 0 1 2.044-1.54c.82-.373 1.754-.56 2.8-.56 1.194 0 2.23.252 3.108.756a5.407 5.407 0 0 1 2.1 2.1c.504.896.755 1.95.755 3.164a8.06 8.06 0 0 1-.56 2.968 11.047 11.047 0 0 1-1.511 2.744c-.654.859-1.41 1.67-2.268 2.436a29.797 29.797 0 0 1-2.773 2.184 32.006 32.006 0 0 1-3.08 1.848l.728-1.036H68.31V87H55.15Zm20.68.224c-1.42 0-2.66-.252-3.725-.756-1.063-.523-1.894-1.25-2.491-2.184-.58-.952-.868-2.053-.868-3.304l2.716-.168c0 1.157.4 2.081 1.204 2.772.82.672 1.903 1.008 3.248 1.008.877 0 1.633-.14 2.267-.42.635-.28 1.12-.672 1.456-1.176.337-.523.504-1.139.504-1.848 0-.635-.14-1.157-.42-1.568a2.868 2.868 0 0 0-1.12-1.036c-.466-.261-1.035-.439-1.708-.532a12.615 12.615 0 0 0-2.128-.168v-2.156a9.25 9.25 0 0 0 1.624-.14c.523-.112.98-.28 1.373-.504.41-.224.727-.523.951-.896.225-.392.337-.868.337-1.428 0-.579-.14-1.083-.42-1.512a2.501 2.501 0 0 0-1.12-.98c-.486-.243-1.055-.364-1.709-.364-1.082 0-1.931.299-2.548.896-.597.579-.905 1.335-.924 2.268l-2.688-.168c0-1.101.262-2.072.785-2.912a5.498 5.498 0 0 1 2.211-1.96c.953-.485 2.035-.728 3.248-.728 1.158 0 2.175.224 3.053.672.896.43 1.596 1.036 2.1 1.82.504.765.755 1.661.755 2.688 0 .523-.074.999-.224 1.428-.149.41-.363.784-.643 1.12-.28.336-.607.625-.98.868-.355.224-.747.42-1.177.588.542.15 1.055.355 1.54.616.504.243.943.56 1.316.952.392.392.7.85.924 1.372.225.523.337 1.12.337 1.792 0 1.195-.3 2.25-.897 3.164-.597.915-1.427 1.624-2.491 2.128-1.046.504-2.268.756-3.668.756ZM85.505 87l12.488-19.516h1.988L87.466 87h-1.96Zm12.096.252a4.27 4.27 0 0 1-2.156-.56 4.512 4.512 0 0 1-1.54-1.596c-.392-.69-.588-1.484-.588-2.38 0-.896.187-1.68.56-2.352a4.281 4.281 0 0 1 1.54-1.568c.635-.373 1.354-.56 2.156-.56.803 0 1.531.205 2.184.616a4.21 4.21 0 0 1 1.54 1.596c.374.672.56 1.428.56 2.268 0 .821-.186 1.577-.56 2.268a4.365 4.365 0 0 1-1.54 1.652c-.634.41-1.353.616-2.156.616Zm0-1.876c.467 0 .878-.112 1.232-.336.355-.243.635-.56.84-.952.224-.41.336-.868.336-1.372 0-.523-.112-.98-.336-1.372a2.505 2.505 0 0 0-.896-.924 2.207 2.207 0 0 0-1.204-.336 2.3 2.3 0 0 0-1.204.336 2.36 2.36 0 0 0-.868.896c-.205.392-.308.859-.308 1.4 0 .541.112 1.017.336 1.428.224.41.523.719.896.924.374.205.766.308 1.176.308Zm-9.548-9.128a4.33 4.33 0 0 1-2.184-.56 4.512 4.512 0 0 1-1.54-1.596c-.392-.672-.588-1.447-.588-2.324 0-.915.187-1.708.56-2.38a4.281 4.281 0 0 1 1.54-1.568 4.112 4.112 0 0 1 2.156-.588c.803 0 1.531.205 2.184.616a4.16 4.16 0 0 1 1.54 1.624c.374.69.56 1.456.56 2.296 0 .803-.186 1.55-.56 2.24a4.512 4.512 0 0 1-1.512 1.624c-.634.41-1.353.616-2.156.616Zm0-1.876c.448 0 .84-.112 1.176-.336.355-.243.635-.56.84-.952.224-.392.336-.83.336-1.316 0-.541-.112-1.008-.336-1.4a2.586 2.586 0 0 0-.868-.924 2.207 2.207 0 0 0-1.204-.336c-.429 0-.83.103-1.204.308-.354.205-.644.513-.868.924-.224.392-.336.868-.336 1.428 0 .523.112.99.336 1.4.224.392.523.69.896.896a2.52 2.52 0 0 0 1.232.308Z"/><rect width="62" height="24" x="116" y="65" fill="#1A1A1A" rx="12"/><path stroke="#589E67" stroke-linecap="round" stroke-linejoin="round" stroke-width="1.5" d="m138.5 72.5-6 6L130 76l-4.5 4.5"/><path stroke="#589E67" stroke-linecap="round" stroke-linejoin="round" stroke-width="1.5" d="M138.5 76.5v-4h-4"/><path fill="#589E67" d="M151.408 81v-6.696l.36.588h-2.52v-.936h1.392c.256 0 .448-.052.576-.156.128-.112.192-.304.192-.576v-.588h1.188V81h-1.188Zm3.259 0v-.936c.272-.216.588-.456.948-.72.36-.264.724-.552 1.092-.864.376-.312.724-.644 1.044-.996.32-.352.576-.72.768-1.104.2-.392.3-.792.3-1.2 0-.44-.12-.796-.36-1.068-.24-.28-.6-.42-1.08-.42-.36 0-.66.084-.9.252a1.487 1.487 0 0 0-.516.684 2.807 2.807 0 0 0-.18.96l-1.152-.084c0-.392.06-.764.18-1.116.12-.352.296-.664.528-.936.24-.28.532-.5.876-.66a2.87 2.87 0 0 1 1.2-.24c.512 0 .956.108 1.332.324.384.216.684.516.9.9.216.384.324.836.324 1.356 0 .44-.08.864-.24 1.272-.152.408-.368.8-.648 1.176-.28.368-.604.716-.972 1.044-.368.328-.764.64-1.188.936-.424.288-.864.552-1.32.792l.312-.444h4.392V81h-5.64Zm6.895 0 5.352-8.364h.852L162.402 81h-.84Zm5.184.108a1.83 1.83 0 0 1-.924-.24 1.933 1.933 0 0 1-.66-.684 2.03 2.03 0 0 1-.252-1.02c0-.384.08-.72.24-1.008.168-.288.388-.512.66-.672.272-.16.58-.24.924-.24.344 0 .656.088.936.264.28.168.5.396.66.684.16.288.24.612.24.972 0 .352-.08.676-.24.972-.16.296-.38.532-.66.708-.272.176-.58.264-.924.264Zm0-.804c.2 0 .376-.048.528-.144a1.208 1.208 0 0 0 .504-.996c0-.224-.048-.42-.144-.588a1.074 1.074 0 0 0-.384-.396.946.946 0 0 0-.516-.144.986.986 0 0 0-.516.144 1.011 1.011 0 0 0-.372.384 1.277 1.277 0 0 0-.132.6c0 .232.048.436.144.612a.966.966 0 0 0 .384.396c.16.088.328.132.504.132Zm-4.092-3.912c-.344 0-.656-.08-.936-.24a1.933 1.933 0 0 1-.66-.684 1.94 1.94 0 0 1-.252-.996c0-.392.08-.732.24-1.02.168-.288.388-.512.66-.672.28-.168.588-.252.924-.252.344 0 .656.088.936.264.28.168.5.4.66.696.16.296.24.624.24.984a1.934 1.934 0 0 1-.888 1.656c-.272.176-.58.264-.924.264Zm0-.804c.192 0 .36-.048.504-.144a1.11 1.11 0 0 0 .36-.408c.096-.168.144-.356.144-.564a1.19 1.19 0 0 0-.144-.6c-.096-.168-.22-.3-.372-.396a.946.946 0 0 0-.516-.144c-.184 0-.356.044-.516.132a.991.991 0 0 0-.372.396 1.215 1.215 0 0 0-.144.612c0 .224.048.424.144.6a.984.984 0 0 0 .384.384c.16.088.336.132.528.132Z"/><path fill="#727272" d="m20.196 117 3.794-9.758h1.106l3.78 9.758h-1.554l-2.772-7.686L21.764 117h-1.568Zm2.24-2.17.434-1.274h3.332l.476 1.274h-4.242Zm8.285 2.17-2.829-6.902h1.512l1.877 5.124 1.904-5.124h1.483l-2.8 6.902h-1.147Zm7.276.126c-.56 0-1.046-.093-1.456-.28a2.819 2.819 0 0 1-1.022-.77 3.612 3.612 0 0 1-.616-1.134 4.586 4.586 0 0 1-.196-1.344c0-.467.065-.915.196-1.344a3.47 3.47 0 0 1 .588-1.162c.26-.345.588-.616.98-.812.4-.205.872-.308 1.414-.308.54 0 1.008.093 1.4.28.392.177.714.429.966.756.252.317.438.677.56 1.078.13.401.196.826.196 1.274 0 .047-.005.135-.014.266 0 .121-.01.238-.028.35h-4.886c.028.616.214 1.092.56 1.428.354.327.82.49 1.4.49.392 0 .742-.061 1.05-.182a2.6 2.6 0 0 0 .854-.602l.84.868a4.13 4.13 0 0 1-.84.658 3.13 3.13 0 0 1-.896.364 3.998 3.998 0 0 1-1.05.126Zm1.652-3.836a.924.924 0 0 0 .028-.224 1.81 1.81 0 0 0-.098-.854 1.58 1.58 0 0 0-.336-.546 1.513 1.513 0 0 0-.56-.392 1.73 1.73 0 0 0-.756-.154c-.383 0-.71.089-.98.266a1.739 1.739 0 0 0-.63.672c-.14.28-.224.583-.252.91h4.032l-.448.322Zm2.24 3.71v-6.902h1.386v1.862l-.294.056a2.07 2.07 0 0 1 .42-1.064 2.59 2.59 0 0 1 .854-.714 2.02 2.02 0 0 1 .966-.266c.224 0 .434.028.63.084.205.047.41.131.616.252l-.672 1.232a1.569 1.569 0 0 0-.392-.14 1.822 1.822 0 0 0-1.078.056 1.53 1.53 0 0 0-.56.364 1.65 1.65 0 0 0-.364.658c-.037.131-.07.303-.098.518a9.99 9.99 0 0 0-.028.854V117H41.89Zm9.427 0-.112-1.274v-3.066c0-.485-.14-.859-.42-1.12-.28-.261-.686-.392-1.218-.392-.373 0-.732.075-1.078.224-.336.149-.658.392-.966.728l-.854-.882c.41-.429.864-.742 1.358-.938a4.306 4.306 0 0 1 1.638-.308c.924 0 1.638.238 2.142.714.514.467.77 1.125.77 1.974V117h-1.26Zm-2.226.126c-.513 0-.966-.093-1.358-.28a2.179 2.179 0 0 1-.91-.77 2.11 2.11 0 0 1-.322-1.162c0-.383.08-.709.238-.98.159-.28.364-.495.616-.644.234-.149.5-.252.798-.308a4.74 4.74 0 0 1 .98-.098h2.198v1.036h-2.002a3.32 3.32 0 0 0-.588.056 1.096 1.096 0 0 0-.504.196.894.894 0 0 0-.266.322.901.901 0 0 0-.098.434c0 .327.126.588.378.784.252.196.588.294 1.008.294.355 0 .677-.079.966-.238.299-.168.537-.392.714-.672a1.83 1.83 0 0 0 .266-.98l.49.644a3.27 3.27 0 0 1-.49 1.274 2.444 2.444 0 0 1-.91.812 2.54 2.54 0 0 1-1.204.28Zm7.434 2.856c-.998 0-1.792-.182-2.38-.546-.578-.364-.868-.868-.868-1.512v-.182c.01-.075.023-.149.042-.224l1.792-1.232.42.35-.952 1.176a.379.379 0 0 0-.014.084v.084c0 .336.187.588.56.756.373.168.84.252 1.4.252.495 0 .896-.07 1.204-.21.308-.131.462-.345.462-.644a.56.56 0 0 0-.14-.392.999.999 0 0 0-.42-.252 6.186 6.186 0 0 0-.672-.154l-.882-.126a8.959 8.959 0 0 1-1.246-.28 2.597 2.597 0 0 1-.994-.532c-.261-.243-.392-.56-.392-.952 0-.336.117-.644.35-.924.243-.289.556-.523.938-.7l.784.546c-.29.065-.5.173-.63.322a.731.731 0 0 0-.196.518c0 .168.06.303.182.406.13.103.313.182.546.238.233.056.514.107.84.154.457.065.882.135 1.274.21.402.075.752.182 1.05.322.308.131.541.308.7.532.168.233.252.532.252.896 0 .653-.266 1.153-.798 1.498-.522.345-1.26.518-2.212.518Zm-.154-5.068c-.55 0-1.036-.103-1.456-.308a2.494 2.494 0 0 1-.966-.868 2.353 2.353 0 0 1-.35-1.274c0-.495.121-.929.364-1.302s.57-.663.98-.868c.42-.215.882-.322 1.386-.322.485 0 .933.107 1.344.322.42.205.752.499.994.882.252.383.378.831.378 1.344 0 .485-.116.91-.35 1.274-.224.355-.537.63-.938.826-.401.196-.863.294-1.386.294Zm-.028-1.092c.43 0 .76-.131.994-.392a1.45 1.45 0 0 0 .35-.98c0-.411-.126-.737-.378-.98-.242-.252-.565-.378-.966-.378-.42 0-.756.126-1.008.378s-.378.574-.378.966.121.723.364.994c.243.261.584.392 1.022.392Zm2.254-2.38-.994-.658 1.512-1.218.686.854-1.204 1.022Zm4.464 5.684c-.56 0-1.046-.093-1.456-.28a2.82 2.82 0 0 1-1.022-.77 3.614 3.614 0 0 1-.616-1.134 4.59 4.59 0 0 1-.196-1.344c0-.467.065-.915.196-1.344a3.47 3.47 0 0 1 .588-1.162 2.76 2.76 0 0 1 .98-.812c.401-.205.873-.308 1.414-.308.541 0 1.008.093 1.4.28.392.177.714.429.966.756.252.317.439.677.56 1.078.13.401.196.826.196 1.274 0 .047-.005.135-.014.266 0 .121-.01.238-.028.35h-4.886c.028.616.214 1.092.56 1.428.355.327.821.49 1.4.49.392 0 .742-.061 1.05-.182.308-.131.593-.331.854-.602l.84.868c-.27.271-.55.49-.84.658a3.13 3.13 0 0 1-.896.364 3.998 3.998 0 0 1-1.05.126Zm1.652-3.836a.919.919 0 0 0 .028-.224 1.791 1.791 0 0 0-.098-.854 1.577 1.577 0 0 0-.336-.546 1.513 1.513 0 0 0-.56-.392 1.73 1.73 0 0 0-.756-.154c-.383 0-.71.089-.98.266-.27.168-.48.392-.63.672-.14.28-.224.583-.252.91h4.032l-.448.322Zm9.433 3.892c-.905 0-1.703-.21-2.394-.63-.681-.42-1.213-1.008-1.596-1.764-.383-.765-.574-1.652-.574-2.66 0-1.017.191-1.904.574-2.66.383-.765.915-1.358 1.596-1.778.69-.42 1.489-.63 2.394-.63.924 0 1.731.21 2.422.63.69.42 1.227 1.013 1.61 1.778.383.756.574 1.643.574 2.66 0 1.008-.196 1.895-.588 2.66a4.272 4.272 0 0 1-1.61 1.764c-.69.42-1.493.63-2.408.63Zm0-1.358c.653 0 1.213-.149 1.68-.448.467-.308.83-.737 1.092-1.288.261-.56.392-1.213.392-1.96 0-.756-.13-1.409-.392-1.96-.261-.56-.625-.989-1.092-1.288-.467-.308-1.027-.462-1.68-.462-.635 0-1.19.149-1.666.448-.467.299-.83.728-1.092 1.288-.252.551-.378 1.209-.378 1.974 0 .756.126 1.414.378 1.974.261.551.625.975 1.092 1.274.476.299 1.031.448 1.666.448Zm5.517 4.032v-9.758h1.372v1.988l-.392-.126c.121-.457.298-.831.532-1.12a2.25 2.25 0 0 1 .868-.644c.336-.149.71-.224 1.12-.224.616 0 1.152.159 1.61.476.466.308.826.733 1.078 1.274.252.541.378 1.153.378 1.834 0 .728-.136 1.363-.406 1.904-.27.532-.64.943-1.106 1.232a2.893 2.893 0 0 1-1.554.434 2.68 2.68 0 0 1-1.134-.238 2.474 2.474 0 0 1-.854-.658 2.537 2.537 0 0 1-.49-1.022l.35-.196v4.844h-1.372Zm3.206-3.99c.401 0 .746-.093 1.036-.28.298-.196.532-.467.7-.812.168-.355.252-.761.252-1.218 0-.457-.084-.859-.252-1.204a1.967 1.967 0 0 0-.7-.826c-.29-.196-.635-.294-1.036-.294-.392 0-.738.098-1.036.294-.29.196-.518.471-.686.826-.159.345-.238.747-.238 1.204 0 .457.08.863.238 1.218.168.345.396.616.686.812.298.187.644.28 1.036.28Zm7.224 1.26c-.56 0-1.046-.093-1.456-.28a2.819 2.819 0 0 1-1.022-.77 3.612 3.612 0 0 1-.616-1.134 4.586 4.586 0 0 1-.196-1.344c0-.467.065-.915.196-1.344a3.47 3.47 0 0 1 .588-1.162 2.76 2.76 0 0 1 .98-.812c.401-.205.873-.308 1.414-.308.541 0 1.008.093 1.4.28.392.177.714.429.966.756.252.317.438.677.56 1.078.13.401.196.826.196 1.274 0 .047-.005.135-.014.266 0 .121-.01.238-.028.35h-4.886c.028.616.214 1.092.56 1.428.355.327.821.49 1.4.49.392 0 .742-.061 1.05-.182a2.6 2.6 0 0 0 .854-.602l.84.868c-.27.271-.55.49-.84.658a3.13 3.13 0 0 1-.896.364 3.998 3.998 0 0 1-1.05.126Zm1.652-3.836a.924.924 0 0 0 .028-.224 1.81 1.81 0 0 0-.098-.854 1.58 1.58 0 0 0-.336-.546 1.513 1.513 0 0 0-.56-.392 1.73 1.73 0 0 0-.756-.154c-.383 0-.71.089-.98.266-.27.168-.48.392-.63.672-.14.28-.224.583-.252.91h4.032l-.448.322Zm2.24 3.71v-6.902h1.386v1.498l-.28.084c.122-.383.294-.695.518-.938a2.35 2.35 0 0 1 .812-.574 2.652 2.652 0 0 1 1.022-.196c.766 0 1.363.224 1.792.672.44.439.658 1.083.658 1.932V117H98.52v-3.92c0-.663-.12-1.148-.364-1.456-.233-.308-.597-.462-1.092-.462-.373 0-.686.084-.938.252-.242.168-.429.434-.56.798-.13.364-.196.826-.196 1.386V117h-1.386Zm10.073 0v-9.758h3.01c.766 0 1.386.112 1.862.336.486.224.84.546 1.064.966.234.411.35.901.35 1.47 0 .84-.242 1.498-.728 1.974-.476.476-1.166.751-2.072.826-.158.009-.34.014-.546.014h-1.512V117h-1.428Zm5.404 0-2.506-4.34 1.456-.182 2.688 4.522h-1.638Zm-3.976-5.432h1.442c.392 0 .733-.047 1.022-.14.299-.103.537-.266.714-.49.178-.224.266-.527.266-.91s-.088-.681-.266-.896a1.422 1.422 0 0 0-.714-.476 3.431 3.431 0 0 0-1.022-.14h-1.442v3.052ZM116.189 117l-.112-1.274v-3.066c0-.485-.14-.859-.42-1.12-.28-.261-.686-.392-1.218-.392-.373 0-.732.075-1.078.224-.336.149-.658.392-.966.728l-.854-.882a3.843 3.843 0 0 1 1.358-.938 4.306 4.306 0 0 1 1.638-.308c.924 0 1.638.238 2.142.714.514.467.77 1.125.77 1.974V117h-1.26Zm-2.226.126c-.513 0-.966-.093-1.358-.28a2.181 2.181 0 0 1-.91-.77 2.116 2.116 0 0 1-.322-1.162c0-.383.08-.709.238-.98.159-.28.364-.495.616-.644.234-.149.5-.252.798-.308a4.74 4.74 0 0 1 .98-.098h2.198v1.036h-2.002c-.186 0-.382.019-.588.056a1.096 1.096 0 0 0-.504.196.901.901 0 0 0-.266.322.906.906 0 0 0-.098.434c0 .327.126.588.378.784.252.196.588.294 1.008.294.355 0 .677-.079.966-.238.299-.168.537-.392.714-.672a1.83 1.83 0 0 0 .266-.98l.49.644a3.27 3.27 0 0 1-.49 1.274 2.438 2.438 0 0 1-.91.812 2.54 2.54 0 0 1-1.204.28Zm7.014 0a2.25 2.25 0 0 1-.938-.196 1.51 1.51 0 0 1-.672-.63c-.158-.299-.238-.681-.238-1.148v-6.818l1.386-.77v7.224c0 .383.056.681.168.896.122.205.341.308.658.308.094 0 .201-.009.322-.028.131-.028.271-.061.42-.098v1.064a3.08 3.08 0 0 1-.56.14 2.796 2.796 0 0 1-.546.056Zm-3.22-5.964v-1.064h4.326v1.064h-4.326Zm7.879 5.964c-.56 0-1.045-.093-1.456-.28a2.82 2.82 0 0 1-1.022-.77 3.606 3.606 0 0 1-.616-1.134 4.576 4.576 0 0 1-.196-1.344c0-.467.065-.915.196-1.344.131-.439.327-.826.588-1.162a2.76 2.76 0 0 1 .98-.812c.401-.205.873-.308 1.414-.308.541 0 1.008.093 1.4.28.392.177.714.429.966.756.252.317.439.677.56 1.078.131.401.196.826.196 1.274 0 .047-.005.135-.014.266 0 .121-.009.238-.028.35h-4.886c.028.616.215 1.092.56 1.428.355.327.821.49 1.4.49.392 0 .742-.061 1.05-.182.308-.131.593-.331.854-.602l.84.868a4.13 4.13 0 0 1-.84.658c-.28.168-.579.289-.896.364a3.998 3.998 0 0 1-1.05.126Zm1.652-3.836a.904.904 0 0 0 .028-.224 1.82 1.82 0 0 0-.098-.854 1.589 1.589 0 0 0-.336-.546 1.51 1.51 0 0 0-.56-.392 1.732 1.732 0 0 0-.756-.154c-.383 0-.709.089-.98.266a1.739 1.739 0 0 0-.63.672c-.14.28-.224.583-.252.91h4.032l-.448.322Z"/><path fill="#0D0D0D" d="M486 64a4 4 0 0 1 4-4h224a4 4 0 0 1 4 4v29a4 4 0 0 1-4 4H490a4 4 0 0 1-4-4V64Z"/><path stroke="#fff" d="M486 64a4 4 0 0 1 4-4h224a4 4 0 0 1 4 4v29a4 4 0 0 1-4 4H490a4 4 0 0 1-4-4V64Z"/><path fill="#fff" d="M501.598 83.182c-.924 0-1.68-.28-2.268-.84-.579-.56-.901-1.33-.966-2.31l1.4-.154c.047.69.229 1.195.546 1.512.317.317.747.476 1.288.476.625 0 1.073-.205 1.344-.616.28-.42.42-1.008.42-1.764v-4.97h-3.794v-1.274h5.222v6.328c0 .747-.131 1.39-.392 1.932a2.797 2.797 0 0 1-1.092 1.246c-.476.29-1.045.434-1.708.434Zm8.9-.182-.112-1.274V78.66c0-.485-.14-.859-.42-1.12-.28-.261-.686-.392-1.218-.392-.373 0-.732.075-1.078.224-.336.15-.658.392-.966.728l-.854-.882a3.83 3.83 0 0 1 1.358-.938 4.3 4.3 0 0 1 1.638-.308c.924 0 1.638.238 2.142.714.514.467.77 1.125.77 1.974V83h-1.26Zm-2.226.126c-.513 0-.966-.093-1.358-.28a2.181 2.181 0 0 1-.91-.77 2.117 2.117 0 0 1-.322-1.162c0-.383.08-.71.238-.98.159-.28.364-.495.616-.644.234-.15.5-.252.798-.308a4.72 4.72 0 0 1 .98-.098h2.198v1.036h-2.002c-.186 0-.382.019-.588.056a1.1 1.1 0 0 0-.504.196.904.904 0 0 0-.266.322.907.907 0 0 0-.098.434c0 .327.126.588.378.784.252.196.588.294 1.008.294.355 0 .677-.08.966-.238.299-.168.537-.392.714-.672.178-.29.266-.616.266-.98l.49.644a3.27 3.27 0 0 1-.49 1.274 2.438 2.438 0 0 1-.91.812 2.54 2.54 0 0 1-1.204.28Zm4.606-.126v-6.902h1.386v1.498l-.28.084c.122-.383.294-.695.518-.938.234-.252.504-.443.812-.574a2.66 2.66 0 0 1 1.022-.196c.766 0 1.363.224 1.792.672.439.439.658 1.083.658 1.932V83h-1.372v-3.92c0-.663-.121-1.148-.364-1.456-.233-.308-.597-.462-1.092-.462-.373 0-.686.084-.938.252-.242.168-.429.434-.56.798-.13.364-.196.826-.196 1.386V83h-1.386Zm9.404.126c-.513 0-.956-.103-1.33-.308a2.143 2.143 0 0 1-.84-.91c-.186-.401-.28-.887-.28-1.456v-4.354h1.372v3.92c0 .41.052.76.154 1.05.103.28.262.495.476.644.224.14.504.21.84.21.392 0 .71-.098.952-.294.252-.196.439-.485.56-.868.122-.392.182-.877.182-1.456v-3.206h1.358V83h-1.358v-1.484l.28.056c-.205.513-.518.9-.938 1.162a2.65 2.65 0 0 1-1.428.392Zm9.181-.126-.112-1.274V78.66c0-.485-.14-.859-.42-1.12-.28-.261-.686-.392-1.218-.392a2.69 2.69 0 0 0-1.078.224c-.336.15-.658.392-.966.728l-.854-.882c.41-.43.863-.742 1.358-.938a4.3 4.3 0 0 1 1.638-.308c.924 0 1.638.238 2.142.714.513.467.77 1.125.77 1.974V83h-1.26Zm-2.226.126c-.514 0-.966-.093-1.358-.28a2.175 2.175 0 0 1-.91-.77 2.108 2.108 0 0 1-.322-1.162c0-.383.079-.71.238-.98a1.7 1.7 0 0 1 .616-.644 2.22 2.22 0 0 1 .798-.308c.308-.065.634-.098.98-.098h2.198v1.036h-2.002c-.187 0-.383.019-.588.056a1.1 1.1 0 0 0-.504.196.894.894 0 0 0-.266.322.895.895 0 0 0-.098.434c0 .327.126.588.378.784.252.196.588.294 1.008.294.354 0 .676-.08.966-.238.298-.168.536-.392.714-.672a1.84 1.84 0 0 0 .266-.98l.49.644c-.084.485-.248.91-.49 1.274a2.446 2.446 0 0 1-.91.812c-.355.187-.756.28-1.204.28Zm4.606-.126v-6.902h1.386v1.862l-.294.056c.046-.41.186-.765.42-1.064a2.58 2.58 0 0 1 .854-.714 2.01 2.01 0 0 1 .966-.266c.224 0 .434.028.63.084.205.047.41.13.616.252l-.672 1.232a1.596 1.596 0 0 0-.392-.14 1.827 1.827 0 0 0-1.078.056 1.52 1.52 0 0 0-.56.364 1.65 1.65 0 0 0-.364.658c-.038.13-.07.303-.098.518-.019.205-.028.49-.028.854V83h-1.386Zm5.727 2.842 1.344-3.248-2.66-6.496h1.512l1.876 5.124 1.904-5.124h1.484l-3.962 9.744h-1.498Zm4.848-.714 1.19-4.228h1.526l-1.792 4.228h-.924ZM550.326 83v-1.092c.318-.252.686-.532 1.106-.84.42-.308.845-.644 1.274-1.008.439-.364.845-.751 1.218-1.162.374-.41.672-.84.896-1.288a3.04 3.04 0 0 0 .35-1.4c0-.513-.14-.929-.42-1.246-.28-.327-.7-.49-1.26-.49-.42 0-.77.098-1.05.294-.27.196-.471.462-.602.798-.13.336-.2.71-.21 1.12l-1.344-.098c0-.457.07-.891.21-1.302.14-.41.346-.775.616-1.092a2.99 2.99 0 0 1 1.022-.77 3.35 3.35 0 0 1 1.4-.28c.598 0 1.116.126 1.554.378.448.252.798.602 1.05 1.05.252.448.378.975.378 1.582 0 .513-.093 1.008-.28 1.484a5.502 5.502 0 0 1-.756 1.372c-.326.43-.704.835-1.134 1.218a14.79 14.79 0 0 1-1.386 1.092c-.494.336-1.008.644-1.54.924l.364-.518h5.124V83h-6.58Zm10.438.112c-.569 0-1.05-.103-1.442-.308-.382-.205-.7-.48-.952-.826a4.3 4.3 0 0 1-.56-1.176 8.18 8.18 0 0 1-.252-1.358 14.156 14.156 0 0 1-.014-2.688 7.83 7.83 0 0 1 .252-1.344c.131-.439.318-.83.56-1.176a2.68 2.68 0 0 1 .938-.826c.392-.205.868-.308 1.428-.308.551 0 1.018.103 1.4.308.383.196.696.462.938.798.252.336.444.719.574 1.148.131.43.22.882.266 1.358a11.511 11.511 0 0 1 0 2.786c-.046.476-.14.929-.28 1.358-.13.43-.317.817-.56 1.162a2.62 2.62 0 0 1-.924.798c-.373.196-.83.294-1.372.294Zm0-1.316c.467 0 .831-.163 1.092-.49.271-.327.462-.765.574-1.316.112-.55.168-1.167.168-1.848 0-.719-.06-1.353-.182-1.904-.112-.56-.303-1.003-.574-1.33-.27-.327-.644-.49-1.12-.49-.373 0-.681.098-.924.294-.233.196-.415.467-.546.812-.13.345-.224.742-.28 1.19-.056.439-.084.91-.084 1.414 0 .485.028.947.084 1.386.056.439.15.83.28 1.176.14.336.332.607.574.812.243.196.556.294.938.294Zm3.83 1.204v-1.092c.318-.252.686-.532 1.106-.84.42-.308.845-.644 1.274-1.008.439-.364.845-.751 1.218-1.162.374-.41.672-.84.896-1.288a3.04 3.04 0 0 0 .35-1.4c0-.513-.14-.929-.42-1.246-.28-.327-.7-.49-1.26-.49-.42 0-.77.098-1.05.294-.27.196-.471.462-.602.798-.13.336-.2.71-.21 1.12l-1.344-.098c0-.457.07-.891.21-1.302.14-.41.346-.775.616-1.092a2.99 2.99 0 0 1 1.022-.77 3.35 3.35 0 0 1 1.4-.28c.598 0 1.116.126 1.554.378.448.252.798.602 1.05 1.05.252.448.378.975.378 1.582 0 .513-.093 1.008-.28 1.484a5.502 5.502 0 0 1-.756 1.372c-.326.43-.704.835-1.134 1.218a14.79 14.79 0 0 1-1.386 1.092c-.494.336-1.008.644-1.54.924l.364-.518h5.124V83h-6.58Zm10.34.112c-.709 0-1.33-.126-1.862-.378a3.027 3.027 0 0 1-1.246-1.092c-.289-.476-.434-1.027-.434-1.652l1.358-.084c0 .579.201 1.04.602 1.386.411.336.952.504 1.624.504.439 0 .817-.07 1.134-.21.318-.14.56-.336.728-.588.168-.261.252-.57.252-.924 0-.317-.07-.579-.21-.784a1.427 1.427 0 0 0-.56-.518 2.418 2.418 0 0 0-.854-.266 6.299 6.299 0 0 0-1.064-.084v-1.078c.28 0 .551-.023.812-.07.262-.056.49-.14.686-.252a1.22 1.22 0 0 0 .476-.448c.112-.196.168-.434.168-.714 0-.29-.07-.541-.21-.756a1.245 1.245 0 0 0-.56-.49 1.885 1.885 0 0 0-.854-.182c-.541 0-.966.15-1.274.448-.298.29-.452.667-.462 1.134l-1.344-.084c0-.55.131-1.036.392-1.456.271-.42.64-.747 1.106-.98.476-.243 1.018-.364 1.624-.364.579 0 1.088.112 1.526.336.448.215.798.518 1.05.91.252.383.378.83.378 1.344 0 .261-.037.5-.112.714a1.849 1.849 0 0 1-.322.56c-.14.168-.303.313-.49.434-.177.112-.373.21-.588.294.271.075.528.177.77.308.252.121.472.28.658.476.196.196.35.425.462.686.112.261.168.56.168.896 0 .597-.149 1.125-.448 1.582a2.961 2.961 0 0 1-1.246 1.064c-.522.252-1.134.378-1.834.378Zm6.781-3.808v-1.022h3.472v1.022h-3.472ZM589.022 83v-9.758h2.744c1.605 0 2.847.434 3.724 1.302.887.859 1.33 2.077 1.33 3.654 0 1.55-.439 2.74-1.316 3.57-.868.821-2.119 1.232-3.752 1.232h-2.73Zm1.428-1.316h1.176c.793 0 1.47-.112 2.03-.336.56-.224.985-.597 1.274-1.12.299-.523.448-1.218.448-2.086 0-.859-.145-1.55-.434-2.072a2.524 2.524 0 0 0-1.246-1.148c-.541-.243-1.19-.364-1.946-.364h-1.302v7.126Zm10.244 1.442c-.56 0-1.046-.093-1.456-.28a2.811 2.811 0 0 1-1.022-.77 3.606 3.606 0 0 1-.616-1.134 4.579 4.579 0 0 1-.196-1.344c0-.467.065-.915.196-1.344a3.47 3.47 0 0 1 .588-1.162 2.76 2.76 0 0 1 .98-.812c.401-.205.872-.308 1.414-.308.541 0 1.008.093 1.4.28.392.177.714.43.966.756.252.317.438.677.56 1.078.13.401.196.826.196 1.274 0 .047-.005.135-.014.266 0 .121-.01.238-.028.35h-4.886c.028.616.214 1.092.56 1.428.354.327.821.49 1.4.49.392 0 .742-.06 1.05-.182.308-.13.592-.331.854-.602l.84.868a4.14 4.14 0 0 1-.84.658c-.28.168-.579.29-.896.364a3.998 3.998 0 0 1-1.05.126Zm1.652-3.836a.954.954 0 0 0 .028-.224 1.846 1.846 0 0 0-.098-.854 1.583 1.583 0 0 0-.336-.546 1.522 1.522 0 0 0-.56-.392 1.737 1.737 0 0 0-.756-.154c-.383 0-.71.089-.98.266a1.739 1.739 0 0 0-.63.672 2.49 2.49 0 0 0-.252.91h4.032l-.448.322Zm5.166 3.836a3.35 3.35 0 0 1-1.4-.28 3.067 3.067 0 0 1-1.022-.798 3.595 3.595 0 0 1-.616-1.148c-.14-.43-.21-.882-.21-1.358 0-.467.07-.915.21-1.344.14-.43.346-.812.616-1.148.28-.336.621-.597 1.022-.784a3.215 3.215 0 0 1 1.4-.294c.672 0 1.256.163 1.75.49.504.327.873.821 1.106 1.484l-1.204.462a1.979 1.979 0 0 0-.588-.896c-.27-.233-.625-.35-1.064-.35-.429 0-.784.117-1.064.35-.28.224-.485.518-.616.882a3.31 3.31 0 0 0-.196 1.148c0 .41.066.798.196 1.162.131.364.336.658.616.882.28.224.635.336 1.064.336.439 0 .794-.112 1.064-.336.271-.233.467-.537.588-.91l1.204.462c-.233.672-.602 1.171-1.106 1.498-.494.327-1.078.49-1.75.49Zm6.602 0c-.56 0-1.045-.093-1.456-.28a2.82 2.82 0 0 1-1.022-.77 3.606 3.606 0 0 1-.616-1.134 4.579 4.579 0 0 1-.196-1.344c0-.467.065-.915.196-1.344.131-.439.327-.826.588-1.162a2.76 2.76 0 0 1 .98-.812c.401-.205.873-.308 1.414-.308.541 0 1.008.093 1.4.28.392.177.714.43.966.756.252.317.439.677.56 1.078.131.401.196.826.196 1.274 0 .047-.005.135-.014.266 0 .121-.009.238-.028.35h-4.886c.028.616.215 1.092.56 1.428.355.327.821.49 1.4.49.392 0 .742-.06 1.05-.182.308-.13.593-.331.854-.602l.84.868a4.14 4.14 0 0 1-.84.658c-.28.168-.579.29-.896.364a3.998 3.998 0 0 1-1.05.126Zm1.652-3.836a.904.904 0 0 0 .028-.224 1.822 1.822 0 0 0-.098-.854 1.583 1.583 0 0 0-.336-.546 1.514 1.514 0 0 0-.56-.392 1.737 1.737 0 0 0-.756-.154c-.383 0-.709.089-.98.266a1.739 1.739 0 0 0-.63.672 2.49 2.49 0 0 0-.252.91h4.032l-.448.322Zm2.241 3.71v-6.902h1.386v1.778l-.294.098c.084-.364.2-.672.35-.924.149-.252.322-.457.518-.616.205-.159.424-.275.658-.35.233-.075.471-.112.714-.112.401 0 .76.08 1.078.238.326.15.597.387.812.714.224.317.373.737.448 1.26l-.784.154c.14-.541.322-.985.546-1.33.233-.345.513-.602.84-.77a2.42 2.42 0 0 1 1.148-.266c.578 0 1.04.13 1.386.392.354.261.611.602.77 1.022.168.41.252.863.252 1.358V83h-1.358v-3.92c0-.401-.047-.742-.14-1.022-.094-.29-.238-.509-.434-.658-.196-.159-.458-.238-.784-.238-.318 0-.588.084-.812.252-.224.159-.397.401-.518.728-.112.327-.168.733-.168 1.218V83h-1.372v-4.004c0-.616-.117-1.073-.35-1.372-.224-.308-.551-.462-.98-.462-.318 0-.593.084-.826.252-.224.159-.397.401-.518.728-.122.327-.182.733-.182 1.218V83h-1.386Zm14.462.126a2.68 2.68 0 0 1-1.134-.238 2.54 2.54 0 0 1-.868-.714 3.412 3.412 0 0 1-.532-1.148l.406-.014V83h-1.372v-9.758h1.372v4.844l-.35-.084a2.65 2.65 0 0 1 .49-1.05c.233-.308.518-.546.854-.714a2.444 2.444 0 0 1 1.134-.266c.569 0 1.087.145 1.554.434.466.29.835.7 1.106 1.232.27.532.406 1.167.406 1.904 0 .672-.126 1.283-.378 1.834-.252.541-.612.97-1.078 1.288-.458.308-.994.462-1.61.462Zm-.294-1.26c.401 0 .746-.098 1.036-.294.298-.196.532-.467.7-.812.168-.355.252-.76.252-1.218 0-.457-.084-.859-.252-1.204a1.878 1.878 0 0 0-.7-.812c-.29-.196-.635-.294-1.036-.294-.392 0-.738.098-1.036.294-.29.187-.518.457-.686.812-.159.345-.238.747-.238 1.204 0 .457.079.863.238 1.218.168.345.396.616.686.812.298.196.644.294 1.036.294Zm7.224 1.26c-.56 0-1.045-.093-1.456-.28a2.82 2.82 0 0 1-1.022-.77 3.606 3.606 0 0 1-.616-1.134 4.579 4.579 0 0 1-.196-1.344c0-.467.065-.915.196-1.344.131-.439.327-.826.588-1.162a2.76 2.76 0 0 1 .98-.812c.401-.205.873-.308 1.414-.308.541 0 1.008.093 1.4.28.392.177.714.43.966.756.252.317.439.677.56 1.078.131.401.196.826.196 1.274 0 .047-.005.135-.014.266 0 .121-.009.238-.028.35h-4.886c.028.616.215 1.092.56 1.428.355.327.821.49 1.4.49.392 0 .742-.06 1.05-.182.308-.13.593-.331.854-.602l.84.868a4.14 4.14 0 0 1-.84.658c-.28.168-.579.29-.896.364a3.998 3.998 0 0 1-1.05.126Zm1.652-3.836a.904.904 0 0 0 .028-.224 1.822 1.822 0 0 0-.098-.854 1.583 1.583 0 0 0-.336-.546 1.514 1.514 0 0 0-.56-.392 1.737 1.737 0 0 0-.756-.154c-.383 0-.709.089-.98.266a1.739 1.739 0 0 0-.63.672 2.49 2.49 0 0 0-.252.91h4.032l-.448.322Zm2.24 3.71v-6.902h1.386v1.862l-.294.056a2.08 2.08 0 0 1 .42-1.064 2.6 2.6 0 0 1 .854-.714 2.02 2.02 0 0 1 .966-.266c.224 0 .434.028.63.084.206.047.411.13.616.252l-.672 1.232a1.566 1.566 0 0 0-.392-.14 1.835 1.835 0 0 0-1.078.056 1.529 1.529 0 0 0-.56.364c-.158.168-.28.387-.364.658-.037.13-.07.303-.098.518-.018.205-.028.49-.028.854V83h-1.386Zm3.784 2.128 1.19-4.228h1.526l-1.792 4.228h-.924ZM652.983 83v-1.092c.317-.252.686-.532 1.106-.84.42-.308.845-.644 1.274-1.008.439-.364.845-.751 1.218-1.162.373-.41.672-.84.896-1.288.233-.457.35-.924.35-1.4 0-.513-.14-.929-.42-1.246-.28-.327-.7-.49-1.26-.49-.42 0-.77.098-1.05.294a1.735 1.735 0 0 0-.602.798 3.26 3.26 0 0 0-.21 1.12l-1.344-.098c0-.457.07-.891.21-1.302.14-.41.345-.775.616-1.092a2.99 2.99 0 0 1 1.022-.77c.411-.187.877-.28 1.4-.28.597 0 1.115.126 1.554.378.448.252.798.602 1.05 1.05.252.448.378.975.378 1.582 0 .513-.093 1.008-.28 1.484a5.502 5.502 0 0 1-.756 1.372c-.327.43-.705.835-1.134 1.218a14.79 14.79 0 0 1-1.386 1.092c-.495.336-1.008.644-1.54.924l.364-.518h5.124V83h-6.58Zm10.438.112c-.569 0-1.05-.103-1.442-.308a2.8 2.8 0 0 1-.952-.826 4.27 4.27 0 0 1-.56-1.176 8.18 8.18 0 0 1-.252-1.358c-.047-.476-.07-.929-.07-1.358 0-.43.019-.873.056-1.33a7.83 7.83 0 0 1 .252-1.344c.131-.439.317-.83.56-1.176.243-.345.555-.62.938-.826.392-.205.868-.308 1.428-.308.551 0 1.017.103 1.4.308.383.196.695.462.938.798.252.336.443.719.574 1.148.131.43.219.882.266 1.358a11.511 11.511 0 0 1 0 2.786 6.39 6.39 0 0 1-.28 1.358 4.05 4.05 0 0 1-.56 1.162 2.638 2.638 0 0 1-.924.798c-.373.196-.831.294-1.372.294Zm0-1.316c.467 0 .831-.163 1.092-.49.271-.327.462-.765.574-1.316.112-.55.168-1.167.168-1.848a8.93 8.93 0 0 0-.182-1.904c-.112-.56-.303-1.003-.574-1.33-.271-.327-.644-.49-1.12-.49-.373 0-.681.098-.924.294-.233.196-.415.467-.546.812a5.166 5.166 0 0 0-.28 1.19c-.056.439-.084.91-.084 1.414 0 .485.028.947.084 1.386.056.439.149.83.28 1.176.14.336.331.607.574.812.243.196.555.294.938.294Zm3.83 1.204v-1.092c.317-.252.686-.532 1.106-.84.42-.308.845-.644 1.274-1.008.439-.364.845-.751 1.218-1.162.373-.41.672-.84.896-1.288.233-.457.35-.924.35-1.4 0-.513-.14-.929-.42-1.246-.28-.327-.7-.49-1.26-.49-.42 0-.77.098-1.05.294a1.735 1.735 0 0 0-.602.798 3.26 3.26 0 0 0-.21 1.12l-1.344-.098c0-.457.07-.891.21-1.302.14-.41.345-.775.616-1.092a2.99 2.99 0 0 1 1.022-.77c.411-.187.877-.28 1.4-.28.597 0 1.115.126 1.554.378.448.252.798.602 1.05 1.05.252.448.378.975.378 1.582 0 .513-.093 1.008-.28 1.484a5.502 5.502 0 0 1-.756 1.372c-.327.43-.705.835-1.134 1.218a14.79 14.79 0 0 1-1.386 1.092c-.495.336-1.008.644-1.54.924l.364-.518h5.124V83h-6.58Zm10.34.112c-.709 0-1.33-.126-1.862-.378a3.027 3.027 0 0 1-1.246-1.092c-.289-.476-.434-1.027-.434-1.652l1.358-.084c0 .579.201 1.04.602 1.386.411.336.952.504 1.624.504.439 0 .817-.07 1.134-.21.317-.14.56-.336.728-.588.168-.261.252-.57.252-.924 0-.317-.07-.579-.21-.784a1.433 1.433 0 0 0-.56-.518 2.418 2.418 0 0 0-.854-.266 6.307 6.307 0 0 0-1.064-.084v-1.078c.28 0 .551-.023.812-.07.261-.056.49-.14.686-.252.205-.112.364-.261.476-.448.112-.196.168-.434.168-.714 0-.29-.07-.541-.21-.756a1.25 1.25 0 0 0-.56-.49 1.888 1.888 0 0 0-.854-.182c-.541 0-.966.15-1.274.448-.299.29-.453.667-.462 1.134l-1.344-.084c0-.55.131-1.036.392-1.456.271-.42.639-.747 1.106-.98.476-.243 1.017-.364 1.624-.364.579 0 1.087.112 1.526.336.448.215.798.518 1.05.91.252.383.378.83.378 1.344 0 .261-.037.5-.112.714a1.87 1.87 0 0 1-.322.56c-.14.168-.303.313-.49.434-.177.112-.373.21-.588.294.271.075.527.177.77.308.252.121.471.28.658.476.196.196.35.425.462.686.112.261.168.56.168.896 0 .597-.149 1.125-.448 1.582a2.967 2.967 0 0 1-1.246 1.064c-.523.252-1.134.378-1.834.378Z"/><path stroke="#fff" stroke-linecap="round" stroke-linejoin="round" stroke-width="1.5" d="m703 76.5-5 5-5-5"/><path fill="#0D0D0D" d="M734 64a4 4 0 0 1 4-4h78a4 4 0 0 1 4 4v29a4 4 0 0 1-4 4h-78a4 4 0 0 1-4-4V64Z"/><path stroke="#fff" d="M734 64a4 4 0 0 1 4-4h78a4 4 0 0 1 4 4v29a4 4 0 0 1-4 4h-78a4 4 0 0 1-4-4V64Z"/><path fill="#fff" d="M747.05 83v-9.758h2.1l2.898 7.504h-.252l2.898-7.504h2.086V83h-1.428v-8.106l.126.028-2.87 7.238h-1.386l-2.87-7.238.126-.028V83h-1.428Zm14.108.126c-.653 0-1.236-.154-1.75-.462a3.337 3.337 0 0 1-1.218-1.274c-.289-.541-.434-1.157-.434-1.848 0-.69.145-1.302.434-1.834a3.24 3.24 0 0 1 1.204-1.274 3.41 3.41 0 0 1 1.764-.462c.663 0 1.246.154 1.75.462.504.308.901.733 1.19 1.274.299.532.448 1.143.448 1.834 0 .69-.149 1.307-.448 1.848a3.35 3.35 0 0 1-1.204 1.274c-.504.308-1.082.462-1.736.462Zm0-1.218c.411 0 .766-.098 1.064-.294a1.84 1.84 0 0 0 .7-.826c.168-.355.252-.77.252-1.246 0-.485-.084-.905-.252-1.26a1.757 1.757 0 0 0-.7-.812c-.298-.196-.653-.294-1.064-.294-.42 0-.784.098-1.092.294a1.973 1.973 0 0 0-.7.826c-.158.345-.238.76-.238 1.246 0 .476.08.891.238 1.246.168.355.402.63.7.826.308.196.672.294 1.092.294ZM765.431 83v-6.902h1.386v1.498l-.28.084c.121-.383.294-.695.518-.938.233-.252.504-.443.812-.574.317-.13.658-.196 1.022-.196.765 0 1.363.224 1.792.672.439.439.658 1.083.658 1.932V83h-1.372v-3.92c0-.663-.121-1.148-.364-1.456-.233-.308-.597-.462-1.092-.462-.373 0-.686.084-.938.252-.243.168-.429.434-.56.798-.131.364-.196.826-.196 1.386V83h-1.386Zm9.446.126a2.25 2.25 0 0 1-.938-.196c-.28-.13-.504-.34-.672-.63-.158-.299-.238-.681-.238-1.148v-6.818l1.386-.77v7.224c0 .383.056.681.168.896.122.205.341.308.658.308.094 0 .201-.01.322-.028.131-.028.271-.06.42-.098v1.064a3.055 3.055 0 0 1-.56.14 2.773 2.773 0 0 1-.546.056Zm-3.22-5.964v-1.064h4.326v1.064h-4.326ZM776.705 83v-9.758h1.386v4.354l-.294.098c.121-.383.298-.7.532-.952.242-.252.518-.443.826-.574.317-.13.653-.196 1.008-.196.765 0 1.362.224 1.792.672.438.439.658 1.083.658 1.932V83h-1.372v-3.92c0-.663-.122-1.148-.364-1.456-.234-.308-.598-.462-1.092-.462-.551 0-.971.196-1.26.588-.29.383-.434.999-.434 1.848V83h-1.386Z"/><path stroke="#fff" stroke-linecap="round" stroke-linejoin="round" stroke-width="1.5" d="m805 76.5-5 5-5-5"/><path fill="#fff" d="M25.244 157v-8.992l.416.704h-3.33v-1.088h1.936c.32 0 .56-.069.72-.208.171-.139.257-.379.257-.72v-.848h1.36V157h-1.36Zm8.009.128c-.619 0-1.147-.112-1.584-.336a3.099 3.099 0 0 1-1.056-.944 4.645 4.645 0 0 1-.64-1.328 10.52 10.52 0 0 1-.304-1.552 15.612 15.612 0 0 1 0-3.136 8.84 8.84 0 0 1 .288-1.536 4.66 4.66 0 0 1 .624-1.312 2.939 2.939 0 0 1 1.056-.928c.426-.235.949-.352 1.568-.352.597 0 1.104.112 1.52.336a2.87 2.87 0 0 1 1.056.896c.277.373.49.805.64 1.296.16.48.272.992.336 1.536a13.956 13.956 0 0 1 0 3.28 8.02 8.02 0 0 1-.336 1.552c-.15.491-.363.928-.64 1.312a2.97 2.97 0 0 1-1.024.896c-.416.213-.918.32-1.504.32Zm0-1.312c.554 0 .992-.192 1.312-.576.33-.384.565-.907.704-1.568.138-.661.208-1.403.208-2.224 0-.864-.075-1.627-.224-2.288-.139-.672-.374-1.2-.704-1.584-.331-.384-.779-.576-1.344-.576-.448 0-.816.117-1.104.352-.288.235-.512.56-.672.976-.16.405-.278.875-.352 1.408a14.25 14.25 0 0 0-.096 1.696c0 .576.032 1.131.096 1.664.074.523.192.987.352 1.392.17.405.4.731.688.976.298.235.677.352 1.136.352Zm8.153 1.312c-.619 0-1.147-.112-1.584-.336a3.097 3.097 0 0 1-1.056-.944 4.64 4.64 0 0 1-.64-1.328 10.507 10.507 0 0 1-.304-1.552 15.582 15.582 0 0 1 0-3.136c.053-.533.15-1.045.288-1.536.15-.491.357-.928.624-1.312.277-.395.63-.704 1.056-.928.426-.235.95-.352 1.568-.352.597 0 1.104.112 1.52.336a2.86 2.86 0 0 1 1.056.896 4.2 4.2 0 0 1 .64 1.296c.16.48.272.992.336 1.536a13.956 13.956 0 0 1 0 3.28 8.02 8.02 0 0 1-.336 1.552c-.15.491-.363.928-.64 1.312a2.972 2.972 0 0 1-1.024.896c-.416.213-.918.32-1.504.32Zm0-1.312c.554 0 .992-.192 1.312-.576.33-.384.565-.907.704-1.568a10.88 10.88 0 0 0 .208-2.224c0-.864-.075-1.627-.224-2.288-.139-.672-.374-1.2-.704-1.584-.33-.384-.779-.576-1.344-.576-.448 0-.816.117-1.104.352-.288.235-.512.56-.672.976-.16.405-.278.875-.352 1.408a14.25 14.25 0 0 0-.096 1.696c0 .576.032 1.131.096 1.664.074.523.192.987.352 1.392.17.405.4.731.688.976.298.235.677.352 1.136.352ZM46.903 157l7.184-11.152h.992L47.895 157h-.992Zm6.832.128c-.459 0-.875-.107-1.248-.32a2.578 2.578 0 0 1-.88-.912 2.676 2.676 0 0 1-.336-1.344c0-.501.106-.944.32-1.328.224-.384.517-.683.88-.896a2.38 2.38 0 0 1 1.248-.336c.459 0 .874.117 1.248.352.373.224.666.528.88.912.224.384.336.816.336 1.296 0 .469-.112.901-.336 1.296a2.536 2.536 0 0 1-.88.928 2.216 2.216 0 0 1-1.232.352Zm0-.928c.288 0 .544-.069.768-.208.234-.149.416-.347.544-.592.139-.256.208-.539.208-.848a1.7 1.7 0 0 0-.208-.848 1.535 1.535 0 0 0-.56-.576 1.426 1.426 0 0 0-.768-.208c-.278 0-.534.069-.768.208a1.638 1.638 0 0 0-.752 1.424c0 .331.07.624.208.88.15.245.341.437.576.576.235.128.485.192.752.192Zm-5.392-5.36c-.459 0-.875-.107-1.248-.32a2.532 2.532 0 0 1-.896-.912 2.554 2.554 0 0 1-.336-1.312c0-.512.112-.96.336-1.344.224-.384.517-.683.88-.896a2.35 2.35 0 0 1 1.232-.336c.459 0 .874.117 1.248.352.373.224.666.533.88.928.224.384.336.816.336 1.296 0 .459-.112.885-.336 1.28a2.582 2.582 0 0 1-.864.928 2.297 2.297 0 0 1-1.232.336Zm0-.928c.277 0 .528-.069.752-.208.224-.149.4-.347.528-.592.139-.245.208-.517.208-.816 0-.331-.07-.619-.208-.864a1.535 1.535 0 0 0-.56-.576 1.397 1.397 0 0 0-.752-.208c-.278 0-.533.069-.768.208a1.449 1.449 0 0 0-.544.56 1.76 1.76 0 0 0-.208.88c0 .32.07.603.208.848.139.245.325.437.56.576.235.128.496.192.784.192Z"/><path stroke="#AFAFAF" stroke-dasharray="4 4" d="M89 150.5h731"/><path fill="#fff" d="m22.405 221 5.44-10.368.368.48h-7.024v-1.264h8v1.04L23.909 221h-1.504Zm10.937.128a3.99 3.99 0 0 1-1.808-.416 3.827 3.827 0 0 1-1.36-1.152 4.15 4.15 0 0 1-.704-1.68l1.328-.24c.074.405.218.779.432 1.12.224.331.512.592.864.784a2.59 2.59 0 0 0 1.232.288c.533 0 .986-.123 1.36-.368.373-.256.656-.587.848-.992.202-.405.304-.837.304-1.296a2.56 2.56 0 0 0-.288-1.216 2.032 2.032 0 0 0-.816-.88c-.352-.224-.79-.336-1.312-.336-.47 0-.896.107-1.28.32a2.924 2.924 0 0 0-.992.928l-1.328-.368 1.04-5.776h5.888v1.264h-5.392l.72-.576-.784 4.32-.384-.08c.416-.491.853-.832 1.312-1.024.47-.192.933-.288 1.392-.288.714 0 1.344.171 1.888.512a3.5 3.5 0 0 1 1.296 1.344c.31.565.464 1.184.464 1.856 0 .533-.096 1.04-.288 1.52a4.08 4.08 0 0 1-.816 1.264 3.951 3.951 0 0 1-1.248.864 3.984 3.984 0 0 1-1.568.304Zm5.56-.128 7.185-11.152h.992L39.895 221h-.992Zm6.833.128c-.459 0-.875-.107-1.248-.32a2.578 2.578 0 0 1-.88-.912 2.676 2.676 0 0 1-.336-1.344c0-.501.106-.944.32-1.328.224-.384.517-.683.88-.896a2.38 2.38 0 0 1 1.248-.336c.459 0 .874.117 1.248.352.373.224.666.528.88.912.224.384.336.816.336 1.296 0 .469-.112.901-.336 1.296a2.536 2.536 0 0 1-.88.928 2.216 2.216 0 0 1-1.232.352Zm0-.928c.288 0 .544-.069.768-.208.234-.149.416-.347.544-.592.139-.256.208-.539.208-.848a1.7 1.7 0 0 0-.208-.848 1.535 1.535 0 0 0-.56-.576 1.426 1.426 0 0 0-.768-.208c-.278 0-.534.069-.768.208a1.638 1.638 0 0 0-.752 1.424c0 .331.07.624.208.88.15.245.341.437.576.576.235.128.485.192.752.192Zm-5.392-5.36c-.459 0-.875-.107-1.248-.32a2.532 2.532 0 0 1-.896-.912 2.554 2.554 0 0 1-.336-1.312c0-.512.112-.96.336-1.344.224-.384.517-.683.88-.896a2.35 2.35 0 0 1 1.232-.336c.459 0 .874.117 1.248.352.373.224.666.533.88.928.224.384.336.816.336 1.296 0 .459-.112.885-.336 1.28a2.582 2.582 0 0 1-.864.928 2.297 2.297 0 0 1-1.232.336Zm0-.928c.277 0 .528-.069.752-.208.224-.149.4-.347.528-.592.139-.245.208-.517.208-.816 0-.331-.07-.619-.208-.864a1.535 1.535 0 0 0-.56-.576 1.397 1.397 0 0 0-.752-.208c-.278 0-.533.069-.768.208a1.449 1.449 0 0 0-.544.56 1.76 1.76 0 0 0-.208.88c0 .32.07.603.208.848.139.245.325.437.56.576.235.128.496.192.784.192Z"/><path stroke="#AFAFAF" stroke-dasharray="4 4" d="M81 214.5h739"/><path fill="#fff" d="M25.189 285.128a3.99 3.99 0 0 1-1.808-.416 3.828 3.828 0 0 1-1.36-1.152 4.15 4.15 0 0 1-.704-1.68l1.328-.24c.074.405.218.779.432 1.12.224.331.512.592.864.784a2.59 2.59 0 0 0 1.232.288c.533 0 .986-.123 1.36-.368.373-.256.656-.587.848-.992.202-.405.304-.837.304-1.296a2.56 2.56 0 0 0-.288-1.216 2.03 2.03 0 0 0-.816-.88c-.352-.224-.79-.336-1.312-.336-.47 0-.896.107-1.28.32a2.925 2.925 0 0 0-.992.928l-1.328-.368 1.04-5.776h5.888v1.264h-5.392l.72-.576-.784 4.32-.384-.08c.416-.491.853-.832 1.312-1.024a3.654 3.654 0 0 1 1.392-.288c.714 0 1.344.171 1.888.512a3.49 3.49 0 0 1 1.296 1.344c.309.565.464 1.184.464 1.856 0 .533-.096 1.04-.288 1.52a4.08 4.08 0 0 1-.816 1.264 3.951 3.951 0 0 1-1.248.864 3.984 3.984 0 0 1-1.568.304Zm8.217 0c-.619 0-1.147-.112-1.584-.336a3.097 3.097 0 0 1-1.056-.944 4.64 4.64 0 0 1-.64-1.328 10.507 10.507 0 0 1-.304-1.552 15.582 15.582 0 0 1 0-3.136c.053-.533.15-1.045.288-1.536.15-.491.357-.928.624-1.312.277-.395.63-.704 1.056-.928.426-.235.95-.352 1.568-.352.597 0 1.104.112 1.52.336a2.86 2.86 0 0 1 1.056.896 4.2 4.2 0 0 1 .64 1.296c.16.48.272.992.336 1.536a13.956 13.956 0 0 1 0 3.28 8.02 8.02 0 0 1-.336 1.552c-.15.491-.363.928-.64 1.312a2.972 2.972 0 0 1-1.024.896c-.416.213-.918.32-1.504.32Zm0-1.312c.554 0 .992-.192 1.312-.576.33-.384.565-.907.704-1.568a10.88 10.88 0 0 0 .208-2.224c0-.864-.075-1.627-.224-2.288-.139-.672-.374-1.2-.704-1.584-.33-.384-.779-.576-1.344-.576-.448 0-.816.117-1.104.352-.288.235-.512.56-.672.976-.16.405-.278.875-.352 1.408a14.25 14.25 0 0 0-.096 1.696c0 .576.032 1.131.096 1.664.074.523.192.987.352 1.392.17.405.4.731.688.976.298.235.677.352 1.136.352ZM38.903 285l7.184-11.152h.992L39.895 285h-.992Zm6.832.128c-.459 0-.875-.107-1.248-.32a2.578 2.578 0 0 1-.88-.912 2.676 2.676 0 0 1-.336-1.344c0-.501.106-.944.32-1.328.224-.384.517-.683.88-.896a2.38 2.38 0 0 1 1.248-.336c.459 0 .874.117 1.248.352.373.224.666.528.88.912.224.384.336.816.336 1.296 0 .469-.112.901-.336 1.296a2.536 2.536 0 0 1-.88.928 2.216 2.216 0 0 1-1.232.352Zm0-.928c.288 0 .544-.069.768-.208.234-.149.416-.347.544-.592.139-.256.208-.539.208-.848a1.7 1.7 0 0 0-.208-.848 1.535 1.535 0 0 0-.56-.576 1.426 1.426 0 0 0-.768-.208c-.278 0-.534.069-.768.208a1.638 1.638 0 0 0-.752 1.424c0 .331.07.624.208.88.15.245.341.437.576.576.235.128.485.192.752.192Zm-5.392-5.36c-.459 0-.875-.107-1.248-.32a2.532 2.532 0 0 1-.896-.912 2.554 2.554 0 0 1-.336-1.312c0-.512.112-.96.336-1.344.224-.384.517-.683.88-.896a2.35 2.35 0 0 1 1.232-.336c.459 0 .874.117 1.248.352.373.224.666.533.88.928.224.384.336.816.336 1.296 0 .459-.112.885-.336 1.28a2.582 2.582 0 0 1-.864.928 2.297 2.297 0 0 1-1.232.336Zm0-.928c.277 0 .528-.069.752-.208.224-.149.4-.347.528-.592.139-.245.208-.517.208-.816 0-.331-.07-.619-.208-.864a1.535 1.535 0 0 0-.56-.576 1.397 1.397 0 0 0-.752-.208c-.278 0-.533.069-.768.208a1.449 1.449 0 0 0-.544.56 1.76 1.76 0 0 0-.208.88c0 .32.07.603.208.848.139.245.325.437.56.576.235.128.496.192.784.192Z"/><path stroke="#AFAFAF" stroke-dasharray="4 4" d="M81 278.5h739"/><path fill="#fff" d="M21.509 349v-1.12c.373-.299.805-.629 1.296-.992a24.26 24.26 0 0 0 1.504-1.184c.512-.427.981-.88 1.408-1.36.437-.48.789-.987 1.056-1.52.266-.533.4-1.083.4-1.648 0-.629-.176-1.141-.528-1.536-.352-.395-.87-.592-1.552-.592-.502 0-.923.117-1.264.352a2.078 2.078 0 0 0-.752.944 3.8 3.8 0 0 0-.256 1.36l-1.328-.096c0-.523.08-1.013.24-1.472a3.6 3.6 0 0 1 .704-1.232 3.209 3.209 0 0 1 1.136-.848c.458-.213.981-.32 1.568-.32.672 0 1.258.144 1.76.432.501.277.89.672 1.168 1.184.288.501.432 1.093.432 1.776 0 .597-.112 1.173-.336 1.728a6.08 6.08 0 0 1-.912 1.584c-.384.501-.827.976-1.328 1.424a17.2 17.2 0 0 1-1.6 1.264c-.566.395-1.142.757-1.728 1.088l.352-.48h6V349h-7.44Zm11.833.128a3.99 3.99 0 0 1-1.808-.416 3.827 3.827 0 0 1-1.36-1.152 4.15 4.15 0 0 1-.704-1.68l1.328-.24c.074.405.218.779.432 1.12.224.331.512.592.864.784a2.59 2.59 0 0 0 1.232.288c.533 0 .986-.123 1.36-.368.373-.256.656-.587.848-.992.202-.405.304-.837.304-1.296a2.56 2.56 0 0 0-.288-1.216 2.032 2.032 0 0 0-.816-.88c-.352-.224-.79-.336-1.312-.336-.47 0-.896.107-1.28.32a2.924 2.924 0 0 0-.992.928l-1.328-.368 1.04-5.776h5.888v1.264h-5.392l.72-.576-.784 4.32-.384-.08c.416-.491.853-.832 1.312-1.024.47-.192.933-.288 1.392-.288.714 0 1.344.171 1.888.512a3.5 3.5 0 0 1 1.296 1.344c.31.565.464 1.184.464 1.856 0 .533-.096 1.04-.288 1.52a4.08 4.08 0 0 1-.816 1.264 3.951 3.951 0 0 1-1.248.864 3.984 3.984 0 0 1-1.568.304Zm5.56-.128 7.185-11.152h.992L39.895 349h-.992Zm6.833.128c-.459 0-.875-.107-1.248-.32a2.578 2.578 0 0 1-.88-.912 2.676 2.676 0 0 1-.336-1.344c0-.501.106-.944.32-1.328.224-.384.517-.683.88-.896a2.38 2.38 0 0 1 1.248-.336c.459 0 .874.117 1.248.352.373.224.666.528.88.912.224.384.336.816.336 1.296 0 .469-.112.901-.336 1.296a2.536 2.536 0 0 1-.88.928 2.216 2.216 0 0 1-1.232.352Zm0-.928c.288 0 .544-.069.768-.208.234-.149.416-.347.544-.592.139-.256.208-.539.208-.848a1.7 1.7 0 0 0-.208-.848 1.535 1.535 0 0 0-.56-.576 1.426 1.426 0 0 0-.768-.208c-.278 0-.534.069-.768.208a1.638 1.638 0 0 0-.752 1.424c0 .331.07.624.208.88.15.245.341.437.576.576.235.128.485.192.752.192Zm-5.392-5.36c-.459 0-.875-.107-1.248-.32a2.532 2.532 0 0 1-.896-.912 2.554 2.554 0 0 1-.336-1.312c0-.512.112-.96.336-1.344.224-.384.517-.683.88-.896a2.35 2.35 0 0 1 1.232-.336c.459 0 .874.117 1.248.352.373.224.666.533.88.928.224.384.336.816.336 1.296 0 .459-.112.885-.336 1.28a2.582 2.582 0 0 1-.864.928 2.297 2.297 0 0 1-1.232.336Zm0-.928c.277 0 .528-.069.752-.208.224-.149.4-.347.528-.592.139-.245.208-.517.208-.816 0-.331-.07-.619-.208-.864a1.535 1.535 0 0 0-.56-.576 1.397 1.397 0 0 0-.752-.208c-.278 0-.533.069-.768.208a1.449 1.449 0 0 0-.544.56 1.76 1.76 0 0 0-.208.88c0 .32.07.603.208.848.139.245.325.437.56.576.235.128.496.192.784.192Z"/><path stroke="#AFAFAF" stroke-dasharray="4 4" d="M81 342.5h739"/><path fill="#fff" d="M25.406 413.128c-.619 0-1.147-.112-1.584-.336a3.099 3.099 0 0 1-1.056-.944 4.645 4.645 0 0 1-.64-1.328 10.52 10.52 0 0 1-.304-1.552 15.612 15.612 0 0 1 0-3.136c.053-.533.15-1.045.288-1.536a4.66 4.66 0 0 1 .624-1.312c.277-.395.63-.704 1.056-.928.426-.235.95-.352 1.568-.352.597 0 1.104.112 1.52.336a2.87 2.87 0 0 1 1.056.896c.277.373.49.805.64 1.296.16.48.272.992.336 1.536a13.956 13.956 0 0 1 0 3.28 8.02 8.02 0 0 1-.336 1.552c-.15.491-.363.928-.64 1.312a2.97 2.97 0 0 1-1.024.896c-.416.213-.918.32-1.504.32Zm0-1.312c.554 0 .992-.192 1.312-.576.33-.384.565-.907.704-1.568.138-.661.208-1.403.208-2.224 0-.864-.075-1.627-.224-2.288-.139-.672-.374-1.2-.704-1.584-.33-.384-.779-.576-1.344-.576-.448 0-.816.117-1.104.352-.288.235-.512.56-.672.976-.16.405-.278.875-.352 1.408a14.25 14.25 0 0 0-.096 1.696c0 .576.032 1.131.096 1.664.074.523.192.987.352 1.392.17.405.4.731.688.976.298.235.677.352 1.136.352ZM30.903 413l7.184-11.152h.992L31.895 413h-.992Zm6.832.128c-.459 0-.875-.107-1.248-.32a2.578 2.578 0 0 1-.88-.912 2.676 2.676 0 0 1-.336-1.344c0-.501.106-.944.32-1.328.224-.384.517-.683.88-.896a2.38 2.38 0 0 1 1.248-.336c.459 0 .874.117 1.248.352.373.224.666.528.88.912.224.384.336.816.336 1.296 0 .469-.112.901-.336 1.296a2.536 2.536 0 0 1-.88.928 2.216 2.216 0 0 1-1.232.352Zm0-.928c.288 0 .544-.069.768-.208.234-.149.416-.347.544-.592.139-.256.208-.539.208-.848a1.7 1.7 0 0 0-.208-.848 1.535 1.535 0 0 0-.56-.576 1.426 1.426 0 0 0-.768-.208c-.278 0-.534.069-.768.208a1.638 1.638 0 0 0-.752 1.424c0 .331.07.624.208.88.15.245.341.437.576.576.235.128.485.192.752.192Zm-5.392-5.36c-.459 0-.875-.107-1.248-.32a2.532 2.532 0 0 1-.896-.912 2.554 2.554 0 0 1-.336-1.312c0-.512.112-.96.336-1.344.224-.384.517-.683.88-.896a2.35 2.35 0 0 1 1.232-.336c.459 0 .874.117 1.248.352.373.224.666.533.88.928.224.384.336.816.336 1.296 0 .459-.112.885-.336 1.28a2.582 2.582 0 0 1-.864.928 2.297 2.297 0 0 1-1.232.336Zm0-.928c.277 0 .528-.069.752-.208.224-.149.4-.347.528-.592.139-.245.208-.517.208-.816 0-.331-.07-.619-.208-.864a1.535 1.535 0 0 0-.56-.576 1.397 1.397 0 0 0-.752-.208c-.278 0-.534.069-.768.208a1.449 1.449 0 0 0-.544.56 1.76 1.76 0 0 0-.208.88c0 .32.07.603.208.848.139.245.325.437.56.576.235.128.496.192.784.192Z"/><path stroke="#AFAFAF" stroke-dasharray="4 4" d="M73 406.5h747"/><g filter="url(#a)"><rect width="173" height="99" x="399.5" y="123.5" fill="#0D0D0D" rx="8"/><rect width="20" height="20" x="415.5" y="139.5" fill="#fff" rx="10"/><path stroke="#0D0D0D" stroke-linecap="round" stroke-linejoin="round" stroke-width=".8" d="M421 148v4.875a.376.376 0 0 0 .375.375h8.25a.376.376 0 0 0 .375-.375V148l-4.5-3-4.5 3Zm3.681 2.625-3.566 2.519m8.77 0-3.567-2.519"/><path stroke="#0D0D0D" stroke-linecap="round" stroke-linejoin="round" stroke-width=".8" d="m430 148-3.682 2.625h-1.636L421 148"/><path fill="#727272" d="M447.098 154.682c-.924 0-1.68-.28-2.268-.84-.579-.56-.901-1.33-.966-2.31l1.4-.154c.047.691.229 1.195.546 1.512.317.317.747.476 1.288.476.625 0 1.073-.205 1.344-.616.28-.42.42-1.008.42-1.764v-4.97h-3.794v-1.274h5.222v6.328c0 .747-.131 1.391-.392 1.932a2.797 2.797 0 0 1-1.092 1.246c-.476.289-1.045.434-1.708.434Zm6.758-.056c-.513 0-.956-.103-1.33-.308a2.145 2.145 0 0 1-.84-.91c-.186-.401-.28-.887-.28-1.456v-4.354h1.372v3.92c0 .411.052.761.154 1.05.103.28.262.495.476.644.224.14.504.21.84.21.392 0 .71-.098.952-.294.252-.196.439-.485.56-.868.122-.392.182-.877.182-1.456v-3.206h1.358v6.902h-1.358v-1.484l.28.056c-.205.513-.518.901-.938 1.162a2.65 2.65 0 0 1-1.428.392Zm6.143 0c-.439 0-.798-.135-1.078-.406s-.42-.7-.42-1.288v-8.19h1.358v7.924c0 .243.051.42.154.532a.615.615 0 0 0 .434.154c.074 0 .158-.005.252-.014a1.99 1.99 0 0 0 .308-.084v1.162a2.048 2.048 0 0 1-.532.154 2.366 2.366 0 0 1-.476.056Zm2.233 2.716 1.344-3.248-2.66-6.496h1.512l1.876 5.124 1.904-5.124h1.484l-3.962 9.744h-1.498Zm8.654-2.842v-1.092c.318-.252.686-.532 1.106-.84.42-.308.845-.644 1.274-1.008.439-.364.845-.751 1.218-1.162.374-.411.672-.84.896-1.288a3.04 3.04 0 0 0 .35-1.4c0-.513-.14-.929-.42-1.246-.28-.327-.7-.49-1.26-.49-.42 0-.77.098-1.05.294-.27.196-.471.462-.602.798-.13.336-.2.709-.21 1.12l-1.344-.098c0-.457.07-.891.21-1.302.14-.411.346-.775.616-1.092a2.99 2.99 0 0 1 1.022-.77c.411-.187.878-.28 1.4-.28.598 0 1.116.126 1.554.378.448.252.798.602 1.05 1.05.252.448.378.975.378 1.582 0 .513-.093 1.008-.28 1.484a5.507 5.507 0 0 1-.756 1.372 8.608 8.608 0 0 1-1.134 1.218c-.429.383-.891.747-1.386 1.092-.494.336-1.008.644-1.54.924l.364-.518h5.124v1.274h-6.58Zm10.438.112c-.569 0-1.05-.103-1.442-.308a2.809 2.809 0 0 1-.952-.826 4.307 4.307 0 0 1-.56-1.176 8.18 8.18 0 0 1-.252-1.358 14.16 14.16 0 0 1-.014-2.688 7.83 7.83 0 0 1 .252-1.344c.131-.439.318-.831.56-1.176a2.68 2.68 0 0 1 .938-.826c.392-.205.868-.308 1.428-.308.551 0 1.018.103 1.4.308.383.196.696.462.938.798.252.336.444.719.574 1.148.131.429.22.882.266 1.358a11.515 11.515 0 0 1 0 2.786c-.046.476-.14.929-.28 1.358-.13.429-.317.817-.56 1.162a2.62 2.62 0 0 1-.924.798c-.373.196-.83.294-1.372.294Zm0-1.316c.467 0 .831-.163 1.092-.49.271-.327.462-.765.574-1.316a9.31 9.31 0 0 0 .168-1.848c0-.719-.06-1.353-.182-1.904-.112-.56-.303-1.003-.574-1.33-.27-.327-.644-.49-1.12-.49-.373 0-.681.098-.924.294-.233.196-.415.467-.546.812-.13.345-.224.742-.28 1.19-.056.439-.084.91-.084 1.414 0 .485.028.947.084 1.386.056.439.15.831.28 1.176.14.336.332.607.574.812.243.196.556.294.938.294Zm3.83 1.204v-1.092c.317-.252.686-.532 1.106-.84.42-.308.845-.644 1.274-1.008.439-.364.845-.751 1.218-1.162.373-.411.672-.84.896-1.288.233-.457.35-.924.35-1.4 0-.513-.14-.929-.42-1.246-.28-.327-.7-.49-1.26-.49-.42 0-.77.098-1.05.294a1.735 1.735 0 0 0-.602.798 3.258 3.258 0 0 0-.21 1.12l-1.344-.098c0-.457.07-.891.21-1.302.14-.411.345-.775.616-1.092a2.99 2.99 0 0 1 1.022-.77c.411-.187.877-.28 1.4-.28.597 0 1.115.126 1.554.378.448.252.798.602 1.05 1.05.252.448.378.975.378 1.582 0 .513-.093 1.008-.28 1.484a5.507 5.507 0 0 1-.756 1.372 8.727 8.727 0 0 1-1.134 1.218c-.429.383-.891.747-1.386 1.092-.495.336-1.008.644-1.54.924l.364-.518h5.124v1.274h-6.58Zm10.34.112c-.709 0-1.33-.126-1.862-.378a3.023 3.023 0 0 1-1.246-1.092c-.289-.476-.434-1.027-.434-1.652l1.358-.084c0 .579.201 1.041.602 1.386.411.336.952.504 1.624.504.439 0 .817-.07 1.134-.21.317-.14.56-.336.728-.588a1.67 1.67 0 0 0 .252-.924c0-.317-.07-.579-.21-.784a1.433 1.433 0 0 0-.56-.518 2.418 2.418 0 0 0-.854-.266 6.307 6.307 0 0 0-1.064-.084v-1.078c.28 0 .551-.023.812-.07.261-.056.49-.14.686-.252.205-.112.364-.261.476-.448.112-.196.168-.434.168-.714 0-.289-.07-.541-.21-.756a1.248 1.248 0 0 0-.56-.49 1.892 1.892 0 0 0-.854-.182c-.541 0-.966.149-1.274.448-.299.289-.453.667-.462 1.134l-1.344-.084c0-.551.131-1.036.392-1.456.271-.42.639-.747 1.106-.98.476-.243 1.017-.364 1.624-.364.579 0 1.087.112 1.526.336.448.215.798.518 1.05.91.252.383.378.831.378 1.344 0 .261-.037.499-.112.714a1.874 1.874 0 0 1-.322.56c-.14.168-.303.313-.49.434-.177.112-.373.21-.588.294.271.075.527.177.77.308.252.121.471.28.658.476.196.196.35.425.462.686.112.261.168.56.168.896 0 .597-.149 1.125-.448 1.582a2.97 2.97 0 0 1-1.246 1.064c-.523.252-1.134.378-1.834.378Z"/><rect width="140" height="37" x="416" y="169" fill="#131313" rx="3.5"/><rect width="140" height="37" x="416" y="169" stroke="#282828" rx="3.5"/><path fill="#727272" d="M433.038 192.182c-.905 0-1.703-.21-2.394-.63-.681-.42-1.213-1.008-1.596-1.764-.382-.765-.574-1.652-.574-2.66 0-1.017.192-1.904.574-2.66.383-.765.915-1.358 1.596-1.778.691-.42 1.489-.63 2.394-.63.924 0 1.732.21 2.422.63.691.42 1.228 1.013 1.61 1.778.383.756.574 1.643.574 2.66 0 1.008-.196 1.895-.588 2.66a4.266 4.266 0 0 1-1.61 1.764c-.69.42-1.493.63-2.408.63Zm0-1.358c.654 0 1.214-.149 1.68-.448a3.082 3.082 0 0 0 1.092-1.288c.262-.56.392-1.213.392-1.96 0-.756-.13-1.409-.392-1.96-.261-.56-.625-.989-1.092-1.288-.466-.308-1.026-.462-1.68-.462-.634 0-1.19.149-1.666.448-.466.299-.83.728-1.092 1.288-.252.551-.378 1.209-.378 1.974 0 .756.126 1.414.378 1.974.262.551.626.975 1.092 1.274.476.299 1.032.448 1.666.448Zm5.517 4.032v-9.758h1.372v1.988l-.392-.126c.121-.457.299-.831.532-1.12.243-.289.532-.504.868-.644a2.732 2.732 0 0 1 1.12-.224c.616 0 1.153.159 1.61.476.467.308.826.733 1.078 1.274.252.541.378 1.153.378 1.834 0 .728-.135 1.363-.406 1.904a3.021 3.021 0 0 1-1.106 1.232 2.895 2.895 0 0 1-1.554.434c-.411 0-.789-.079-1.134-.238a2.47 2.47 0 0 1-.854-.658 2.538 2.538 0 0 1-.49-1.022l.35-.196v4.844h-1.372Zm3.206-3.99c.401 0 .747-.093 1.036-.28.299-.196.532-.467.7-.812.168-.355.252-.761.252-1.218 0-.457-.084-.859-.252-1.204a1.964 1.964 0 0 0-.7-.826c-.289-.196-.635-.294-1.036-.294-.392 0-.737.098-1.036.294a2.009 2.009 0 0 0-.686.826c-.159.345-.238.747-.238 1.204 0 .457.079.863.238 1.218.168.345.397.616.686.812.299.187.644.28 1.036.28Zm7.224 1.26c-.56 0-1.045-.093-1.456-.28a2.82 2.82 0 0 1-1.022-.77 3.606 3.606 0 0 1-.616-1.134 4.576 4.576 0 0 1-.196-1.344c0-.467.065-.915.196-1.344.131-.439.327-.826.588-1.162a2.76 2.76 0 0 1 .98-.812c.401-.205.873-.308 1.414-.308.541 0 1.008.093 1.4.28.392.177.714.429.966.756.252.317.439.677.56 1.078.131.401.196.826.196 1.274 0 .047-.005.135-.014.266 0 .121-.009.238-.028.35h-4.886c.028.616.215 1.092.56 1.428.355.327.821.49 1.4.49.392 0 .742-.061 1.05-.182.308-.131.593-.331.854-.602l.84.868a4.13 4.13 0 0 1-.84.658c-.28.168-.579.289-.896.364a3.998 3.998 0 0 1-1.05.126Zm1.652-3.836a.904.904 0 0 0 .028-.224 1.82 1.82 0 0 0-.098-.854 1.589 1.589 0 0 0-.336-.546 1.51 1.51 0 0 0-.56-.392 1.732 1.732 0 0 0-.756-.154c-.383 0-.709.089-.98.266a1.739 1.739 0 0 0-.63.672c-.14.28-.224.583-.252.91h4.032l-.448.322Zm2.241 3.71v-6.902h1.386v1.498l-.28.084c.121-.383.294-.695.518-.938.233-.252.504-.443.812-.574a2.65 2.65 0 0 1 1.022-.196c.765 0 1.362.224 1.792.672.438.439.658 1.083.658 1.932V192h-1.372v-3.92c0-.663-.122-1.148-.364-1.456-.234-.308-.598-.462-1.092-.462-.374 0-.686.084-.938.252-.243.168-.43.434-.56.798-.131.364-.196.826-.196 1.386V192h-1.386Zm10.073 0v-9.758h3.01c.765 0 1.386.112 1.862.336.485.224.84.546 1.064.966.233.411.35.901.35 1.47 0 .84-.243 1.498-.728 1.974-.476.476-1.167.751-2.072.826a9.735 9.735 0 0 1-.546.014h-1.512V192h-1.428Zm5.404 0-2.506-4.34 1.456-.182 2.688 4.522h-1.638Zm-3.976-5.432h1.442c.392 0 .732-.047 1.022-.14.298-.103.536-.266.714-.49.177-.224.266-.527.266-.91s-.089-.681-.266-.896a1.43 1.43 0 0 0-.714-.476 3.44 3.44 0 0 0-1.022-.14h-1.442v3.052ZM475.082 192l-.112-1.274v-3.066c0-.485-.14-.859-.42-1.12-.28-.261-.686-.392-1.218-.392-.373 0-.732.075-1.078.224-.336.149-.658.392-.966.728l-.854-.882a3.843 3.843 0 0 1 1.358-.938 4.306 4.306 0 0 1 1.638-.308c.924 0 1.638.238 2.142.714.514.467.77 1.125.77 1.974V192h-1.26Zm-2.226.126c-.513 0-.966-.093-1.358-.28a2.181 2.181 0 0 1-.91-.77 2.116 2.116 0 0 1-.322-1.162c0-.383.08-.709.238-.98.159-.28.364-.495.616-.644.234-.149.5-.252.798-.308a4.74 4.74 0 0 1 .98-.098h2.198v1.036h-2.002c-.186 0-.382.019-.588.056a1.096 1.096 0 0 0-.504.196.901.901 0 0 0-.266.322.906.906 0 0 0-.098.434c0 .327.126.588.378.784.252.196.588.294 1.008.294.355 0 .677-.079.966-.238.299-.168.537-.392.714-.672a1.83 1.83 0 0 0 .266-.98l.49.644a3.27 3.27 0 0 1-.49 1.274 2.438 2.438 0 0 1-.91.812 2.54 2.54 0 0 1-1.204.28Zm7.014 0a2.25 2.25 0 0 1-.938-.196 1.51 1.51 0 0 1-.672-.63c-.158-.299-.238-.681-.238-1.148v-6.818l1.386-.77v7.224c0 .383.056.681.168.896.122.205.341.308.658.308.094 0 .201-.009.322-.028.131-.028.271-.061.42-.098v1.064a3.08 3.08 0 0 1-.56.14 2.796 2.796 0 0 1-.546.056Zm-3.22-5.964v-1.064h4.326v1.064h-4.326Zm7.879 5.964c-.56 0-1.045-.093-1.456-.28a2.828 2.828 0 0 1-1.022-.77 3.626 3.626 0 0 1-.616-1.134 4.61 4.61 0 0 1-.196-1.344c0-.467.066-.915.196-1.344.131-.439.327-.826.588-1.162.262-.345.588-.616.98-.812.402-.205.873-.308 1.414-.308.542 0 1.008.093 1.4.28.392.177.714.429.966.756.252.317.439.677.56 1.078.131.401.196.826.196 1.274 0 .047-.004.135-.014.266 0 .121-.009.238-.028.35h-4.886c.028.616.215 1.092.56 1.428.355.327.822.49 1.4.49.392 0 .742-.061 1.05-.182.308-.131.593-.331.854-.602l.84.868c-.27.271-.55.49-.84.658-.28.168-.578.289-.896.364a3.998 3.998 0 0 1-1.05.126Zm1.652-3.836a.904.904 0 0 0 .028-.224 1.82 1.82 0 0 0-.098-.854 1.559 1.559 0 0 0-.336-.546 1.51 1.51 0 0 0-.56-.392 1.726 1.726 0 0 0-.756-.154c-.382 0-.709.089-.98.266-.27.168-.48.392-.63.672-.14.28-.224.583-.252.91h4.032l-.448.322Z"/><path fill="#fff" d="m502.516 182.348-2.816 4.448-.192-.24c.224-.139.459-.24.704-.304.245-.075.485-.112.72-.112.704 0 1.339.165 1.904.496a3.576 3.576 0 0 1 1.328 1.344c.331.555.496 1.179.496 1.872 0 .725-.181 1.376-.544 1.952a3.84 3.84 0 0 1-1.424 1.344 3.936 3.936 0 0 1-1.968.496 4.082 4.082 0 0 1-1.984-.496 3.972 3.972 0 0 1-1.44-1.344 3.638 3.638 0 0 1-.528-1.936c0-.373.053-.731.16-1.072.117-.352.267-.683.448-.992l3.344-5.456h1.792Zm-1.792 5.168c-.427 0-.816.101-1.168.304-.352.192-.64.464-.864.816-.213.352-.32.757-.32 1.216 0 .437.107.832.32 1.184.213.352.496.629.848.832.363.192.757.288 1.184.288.437 0 .832-.096 1.184-.288.352-.203.635-.48.848-.832.213-.352.32-.752.32-1.2 0-.448-.107-.848-.32-1.2a2.112 2.112 0 0 0-.832-.816 2.358 2.358 0 0 0-1.2-.304Zm9.321 5.984v-2.64h-5.184v-1.232l5.344-7.28h1.424v7.04h1.776v1.472h-1.776v2.64h-1.584Zm-3.904-3.552-.08-.56h3.984v-5.376l.208.176-4.112 5.76Zm7.049 5.984 1.36-4.832h1.744l-2.048 4.832h-1.056Zm3.396-2.432v-1.248c.363-.288.784-.608 1.264-.96s.965-.736 1.456-1.152c.501-.416.965-.859 1.392-1.328.427-.469.768-.96 1.024-1.472a3.48 3.48 0 0 0 .4-1.6c0-.587-.16-1.061-.48-1.424-.32-.373-.8-.56-1.44-.56-.48 0-.88.112-1.2.336a1.983 1.983 0 0 0-.688.912 3.76 3.76 0 0 0-.24 1.28l-1.536-.112c0-.523.08-1.019.24-1.488.16-.469.395-.885.704-1.248.32-.373.709-.667 1.168-.88.469-.213 1.003-.32 1.6-.32.683 0 1.275.144 1.776.432a3.09 3.09 0 0 1 1.2 1.2c.288.512.432 1.115.432 1.808a4.61 4.61 0 0 1-.32 1.696 6.327 6.327 0 0 1-.864 1.568 9.81 9.81 0 0 1-1.296 1.392c-.491.437-1.019.853-1.584 1.248a18.25 18.25 0 0 1-1.76 1.056l.416-.592h5.856v1.456h-7.52Zm11.817.128c-.811 0-1.52-.144-2.128-.432a3.46 3.46 0 0 1-1.424-1.248c-.331-.544-.496-1.173-.496-1.888l1.552-.096c0 .661.229 1.189.688 1.584.469.384 1.088.576 1.856.576.501 0 .933-.08 1.296-.24.363-.16.64-.384.832-.672.192-.299.288-.651.288-1.056 0-.363-.08-.661-.24-.896a1.638 1.638 0 0 0-.64-.592 2.768 2.768 0 0 0-.976-.304 7.208 7.208 0 0 0-1.216-.096v-1.232c.32 0 .629-.027.928-.08.299-.064.56-.16.784-.288a1.4 1.4 0 0 0 .544-.512c.128-.224.192-.496.192-.816 0-.331-.08-.619-.24-.864a1.43 1.43 0 0 0-.64-.56 2.153 2.153 0 0 0-.976-.208c-.619 0-1.104.171-1.456.512-.341.331-.517.763-.528 1.296l-1.536-.096c0-.629.149-1.184.448-1.664.309-.48.731-.853 1.264-1.12.544-.277 1.163-.416 1.856-.416.661 0 1.243.128 1.744.384.512.245.912.592 1.2 1.04.288.437.432.949.432 1.536 0 .299-.043.571-.128.816a2.118 2.118 0 0 1-.368.64c-.16.192-.347.357-.56.496-.203.128-.427.24-.672.336.309.085.603.203.88.352.288.139.539.32.752.544.224.224.4.485.528.784.128.299.192.64.192 1.024 0 .683-.171 1.285-.512 1.808-.341.523-.816.928-1.424 1.216-.597.288-1.296.432-2.096.432Zm5.529-.128 7.136-11.152h1.136l-7.152 11.152h-1.12Zm6.912.144c-.448 0-.858-.107-1.232-.32a2.584 2.584 0 0 1-.88-.912 2.708 2.708 0 0 1-.336-1.36c0-.512.107-.96.32-1.344.224-.384.518-.683.88-.896a2.39 2.39 0 0 1 1.232-.32c.459 0 .875.117 1.248.352.374.224.667.528.88.912.214.384.32.816.32 1.296 0 .469-.106.901-.32 1.296a2.49 2.49 0 0 1-.88.944 2.213 2.213 0 0 1-1.232.352Zm0-1.072c.267 0 .502-.064.704-.192.203-.139.363-.32.48-.544.128-.235.192-.496.192-.784 0-.299-.064-.56-.192-.784a1.426 1.426 0 0 0-.512-.528 1.26 1.26 0 0 0-.688-.192c-.245 0-.474.064-.688.192a1.35 1.35 0 0 0-.496.512 1.708 1.708 0 0 0-.176.8c0 .309.064.581.192.816s.299.411.512.528c.214.117.438.176.672.176Zm-5.456-5.216c-.458 0-.874-.107-1.248-.32a2.584 2.584 0 0 1-.88-.912c-.224-.384-.336-.827-.336-1.328 0-.523.107-.976.32-1.36.224-.384.518-.683.88-.896a2.351 2.351 0 0 1 1.232-.336c.459 0 .875.117 1.248.352.374.224.667.533.88.928.214.395.32.832.32 1.312 0 .459-.106.885-.32 1.28a2.576 2.576 0 0 1-.864.928 2.213 2.213 0 0 1-1.232.352Zm0-1.072c.256 0 .48-.064.672-.192.203-.139.363-.32.48-.544a1.49 1.49 0 0 0 .192-.752c0-.309-.064-.576-.192-.8a1.475 1.475 0 0 0-.496-.528 1.26 1.26 0 0 0-.688-.192c-.245 0-.474.059-.688.176a1.322 1.322 0 0 0-.496.528c-.128.224-.192.496-.192.816 0 .299.064.565.192.8.128.224.299.395.512.512.214.117.448.176.704.176Z"/><path fill="#0D0D0D" d="M487.288 227.213c-.43.383-1.146.383-1.576 0l-6.904-6.13c-.669-.594-.176-1.583.788-1.583h13.808c.964 0 1.457.989.788 1.583l-6.904 6.13Z"/></g><rect width="32" height="215" x="87" y="204" fill="#343434" rx="4"/><path fill="#fff" d="M94.787 453.192c-1.035 0-1.883-.315-2.544-.944-.662-.629-1.03-1.493-1.104-2.592l1.392-.144c.053.811.277 1.408.672 1.792.394.384.922.576 1.584.576.757 0 1.306-.251 1.648-.752.352-.501.528-1.221.528-2.16v-5.856h-4.416v-1.264h5.824v7.2c0 .864-.144 1.605-.432 2.224-.278.619-.683 1.093-1.216 1.424-.534.331-1.179.496-1.936.496Zm10.268-.192-.096-1.584v-3.36c0-.608-.171-1.077-.512-1.408-.331-.331-.827-.496-1.488-.496-.427 0-.827.091-1.2.272-.374.171-.736.464-1.088.88l-.976-.832a3.973 3.973 0 0 1 1.504-1.12 4.617 4.617 0 0 1 1.856-.368c1.034 0 1.834.267 2.4.8.565.533.848 1.291.848 2.272V453h-1.248Zm-2.608.128c-.598 0-1.12-.101-1.568-.304a2.506 2.506 0 0 1-1.024-.88 2.382 2.382 0 0 1-.352-1.296c0-.437.085-.805.256-1.104a2.03 2.03 0 0 1 .688-.72c.277-.181.592-.304.944-.368a5.59 5.59 0 0 1 1.136-.112h2.56v1.024h-2.368c-.235 0-.48.021-.736.064a1.57 1.57 0 0 0-.672.272 1.22 1.22 0 0 0-.336.4c-.075.16-.112.347-.112.56 0 .416.154.747.464.992.309.245.725.368 1.248.368.437 0 .832-.101 1.184-.304.362-.203.65-.48.864-.832.224-.363.336-.768.336-1.216l.56.576a3.508 3.508 0 0 1-.512 1.504 2.992 2.992 0 0 1-1.072 1.024c-.427.235-.923.352-1.488.352Zm5.264-.128v-7.888h1.36v1.68l-.32.112c.15-.405.352-.747.608-1.024.256-.288.566-.507.928-.656.363-.16.763-.24 1.2-.24.864 0 1.542.256 2.032.768.491.501.736 1.248.736 2.24V453h-1.36v-4.512c0-.8-.149-1.387-.448-1.76-.288-.384-.73-.576-1.328-.576-.437 0-.81.101-1.12.304-.298.203-.528.523-.688.96-.16.427-.24.976-.24 1.648V453h-1.36Z"/><rect width="32" height="131" x="150.728" y="288" fill="#343434" rx="4"/><path fill="#fff" d="M155.502 453v-11.152h7.312v1.264h-5.904v3.568h5.12v1.264h-5.12V453h-1.408Zm10.963.128c-.618 0-1.162-.101-1.632-.304a3.269 3.269 0 0 1-1.152-.88 4.119 4.119 0 0 1-.688-1.28 5.314 5.314 0 0 1-.224-1.552c0-.544.075-1.061.224-1.552.15-.501.368-.944.656-1.328a3.228 3.228 0 0 1 1.12-.912c.448-.224.971-.336 1.568-.336.608 0 1.131.107 1.568.32.448.203.811.485 1.088.848.288.363.502.768.64 1.216.139.448.208.912.208 1.392 0 .043-.005.144-.016.304 0 .149-.01.283-.032.4h-5.68c.032.768.256 1.365.672 1.792.416.427.982.64 1.696.64.459 0 .859-.075 1.2-.224.342-.149.662-.389.96-.72l.944.832a4.675 4.675 0 0 1-.912.768c-.32.192-.661.336-1.024.432a4.497 4.497 0 0 1-1.184.144Zm2.032-4.352a1.02 1.02 0 0 0 .032-.256 2.174 2.174 0 0 0-.128-1.024 1.931 1.931 0 0 0-.4-.688 1.67 1.67 0 0 0-.672-.496c-.266-.128-.586-.192-.96-.192-.458 0-.853.107-1.184.32-.33.213-.586.496-.768.848a3.02 3.02 0 0 0-.32 1.168h4.848l-.448.32Zm6.353 4.352c-.501 0-.955-.096-1.36-.288a3.032 3.032 0 0 1-1.008-.832 3.824 3.824 0 0 1-.608-1.216l.448-.144V453h-1.344v-11.152h1.344v5.616l-.384-.224c.117-.416.309-.795.576-1.136.267-.341.597-.613.992-.816a2.898 2.898 0 0 1 1.344-.304c.661 0 1.264.165 1.808.496.544.331.976.8 1.296 1.408.32.608.48 1.328.48 2.16 0 .768-.149 1.461-.448 2.08a3.624 3.624 0 0 1-1.264 1.472c-.533.352-1.157.528-1.872.528Zm-.224-1.248c.48 0 .901-.117 1.264-.352a2.42 2.42 0 0 0 .864-1.008c.213-.427.32-.917.32-1.472 0-.555-.107-1.045-.32-1.472a2.315 2.315 0 0 0-.864-.992 2.205 2.205 0 0 0-1.264-.368c-.48 0-.901.123-1.264.368a2.35 2.35 0 0 0-.848.992c-.203.427-.304.917-.304 1.472 0 .555.101 1.045.304 1.472.203.427.485.763.848 1.008.363.235.784.352 1.264.352Z"/><rect width="32" height="239" x="214.454" y="180" fill="#343434" rx="4"/><path fill="#fff" d="M218.229 453v-11.152h2.08l3.504 8.816h-.256l3.504-8.816h2.064V453h-1.408v-9.52l.112.016-3.456 8.56h-1.376l-3.472-8.56.112-.016V453h-1.408Zm17.694 0-.096-1.584v-3.36c0-.608-.171-1.077-.512-1.408-.331-.331-.827-.496-1.488-.496-.427 0-.827.091-1.2.272-.373.171-.736.464-1.088.88l-.976-.832a3.979 3.979 0 0 1 1.504-1.12 4.617 4.617 0 0 1 1.856-.368c1.035 0 1.835.267 2.4.8s.848 1.291.848 2.272V453h-1.248Zm-2.608.128c-.597 0-1.12-.101-1.568-.304a2.51 2.51 0 0 1-1.024-.88c-.235-.373-.352-.805-.352-1.296 0-.437.085-.805.256-1.104.181-.309.411-.549.688-.72.277-.181.592-.304.944-.368a5.598 5.598 0 0 1 1.136-.112h2.56v1.024h-2.368c-.235 0-.48.021-.736.064a1.57 1.57 0 0 0-.672.272 1.22 1.22 0 0 0-.336.4c-.075.16-.112.347-.112.56 0 .416.155.747.464.992.309.245.725.368 1.248.368.437 0 .832-.101 1.184-.304.363-.203.651-.48.864-.832.224-.363.336-.768.336-1.216l.56.576a3.508 3.508 0 0 1-.512 1.504 2.984 2.984 0 0 1-1.072 1.024c-.427.235-.923.352-1.488.352Zm5.265-.128v-7.888h1.36v2.112l-.352.08c.074-.469.25-.875.528-1.216.288-.352.618-.624.992-.816a2.496 2.496 0 0 1 1.12-.288c.245 0 .48.027.704.08.224.053.453.144.688.272l-.672 1.216a2.16 2.16 0 0 0-.464-.16 2.028 2.028 0 0 0-.496-.064c-.256 0-.512.048-.768.144-.246.096-.47.245-.672.448-.203.203-.358.475-.464.816-.043.149-.08.347-.112.592-.022.235-.032.56-.032.976V453h-1.36Z"/><rect width="32" height="171" x="278.182" y="248" fill="#343434" rx="4"/><path fill="#fff" d="m282.207 453 4.256-11.152h1.12L291.839 453h-1.536l-3.264-9.136-3.28 9.136h-1.552Zm2.368-2.624.432-1.264h4.032l.464 1.264h-4.928Zm7.899 5.888v-11.152h1.344v2.352l-.432-.304c.139-.459.342-.848.608-1.168a2.705 2.705 0 0 1 1.008-.752 3.352 3.352 0 0 1 1.344-.256c.715 0 1.339.181 1.872.544.544.352.966.837 1.264 1.456.299.608.448 1.301.448 2.08 0 .821-.16 1.541-.48 2.16a3.529 3.529 0 0 1-1.296 1.408 3.409 3.409 0 0 1-1.808.496c-.501 0-.949-.091-1.344-.272a2.79 2.79 0 0 1-.992-.752 2.994 2.994 0 0 1-.576-1.088l.384-.368v5.616h-1.344Zm3.648-4.368c.48 0 .902-.117 1.264-.352.374-.245.662-.581.864-1.008.214-.427.32-.917.32-1.472 0-.555-.106-1.045-.32-1.472a2.302 2.302 0 0 0-.864-.992 2.203 2.203 0 0 0-1.264-.368c-.48 0-.901.123-1.264.368a2.356 2.356 0 0 0-.848.992c-.202.427-.304.917-.304 1.472 0 .555.102 1.045.304 1.472.203.427.486.763.848 1.008.363.235.784.352 1.264.352Zm4.943 1.104v-7.888h1.36v2.112l-.352.08c.075-.469.251-.875.528-1.216a3.13 3.13 0 0 1 .992-.816 2.496 2.496 0 0 1 1.12-.288c.245 0 .48.027.704.08.224.053.453.144.688.272l-.672 1.216a2.16 2.16 0 0 0-.464-.16 2.028 2.028 0 0 0-.496-.064c-.256 0-.512.048-.768.144a1.956 1.956 0 0 0-.672.448c-.203.203-.357.475-.464.816-.043.149-.08.347-.112.592-.021.235-.032.56-.032.976V453h-1.36Z"/><rect width="32" height="205" x="341.909" y="214" fill="#343434" rx="4"/><path fill="#fff" d="M344.872 453v-11.152h2.08l3.504 8.816h-.256l3.504-8.816h2.064V453h-1.408v-9.52l.112.016-3.456 8.56h-1.376l-3.472-8.56.112-.016V453h-1.408Zm17.693 0-.096-1.584v-3.36c0-.608-.17-1.077-.512-1.408-.33-.331-.826-.496-1.488-.496a2.72 2.72 0 0 0-1.2.272c-.373.171-.736.464-1.088.88l-.976-.832a3.987 3.987 0 0 1 1.504-1.12 4.62 4.62 0 0 1 1.856-.368c1.035 0 1.835.267 2.4.8.566.533.848 1.291.848 2.272V453h-1.248Zm-2.608.128c-.597 0-1.12-.101-1.568-.304a2.517 2.517 0 0 1-1.024-.88 2.388 2.388 0 0 1-.352-1.296c0-.437.086-.805.256-1.104.182-.309.411-.549.688-.72.278-.181.592-.304.944-.368a5.605 5.605 0 0 1 1.136-.112h2.56v1.024h-2.368c-.234 0-.48.021-.736.064a1.57 1.57 0 0 0-.672.272c-.138.107-.25.24-.336.4-.074.16-.112.347-.112.56 0 .416.155.747.464.992.31.245.726.368 1.248.368.438 0 .832-.101 1.184-.304.363-.203.651-.48.864-.832.224-.363.336-.768.336-1.216l.56.576a3.494 3.494 0 0 1-.512 1.504 2.977 2.977 0 0 1-1.072 1.024c-.426.235-.922.352-1.488.352Zm5.846 3.12 1.504-3.632-3.072-7.504h1.488l2.304 6.144 2.32-6.144h1.472l-4.544 11.136h-1.472Z"/><rect width="32" height="118" x="405.637" y="301" fill="#343434" rx="4"/><path fill="#fff" d="M413.369 453.192c-1.035 0-1.883-.315-2.544-.944-.662-.629-1.03-1.493-1.104-2.592l1.392-.144c.053.811.277 1.408.672 1.792.394.384.922.576 1.584.576.757 0 1.306-.251 1.648-.752.352-.501.528-1.221.528-2.16v-5.856h-4.416v-1.264h5.824v7.2c0 .864-.144 1.605-.432 2.224-.278.619-.683 1.093-1.216 1.424-.534.331-1.179.496-1.936.496Zm7.74-.064c-.566 0-1.056-.112-1.472-.336a2.351 2.351 0 0 1-.96-1.024c-.214-.448-.32-1.003-.32-1.664v-4.992h1.344v4.512c0 .523.064.96.192 1.312.138.341.341.597.608.768.266.16.597.24.992.24.437 0 .805-.101 1.104-.304.309-.213.544-.533.704-.96.16-.427.24-.976.24-1.648v-3.92h1.344V453h-1.344v-1.68h.336c-.224.587-.582 1.035-1.072 1.344-.491.309-1.056.464-1.696.464Zm5.294-.128v-7.888h1.36v1.68l-.32.112a3.03 3.03 0 0 1 .608-1.024 2.49 2.49 0 0 1 .928-.656c.362-.16.762-.24 1.2-.24.864 0 1.541.256 2.032.768.49.501.736 1.248.736 2.24V453h-1.36v-4.512c0-.8-.15-1.387-.448-1.76-.288-.384-.731-.576-1.328-.576-.438 0-.811.101-1.12.304-.299.203-.528.523-.688.96-.16.427-.24.976-.24 1.648V453h-1.36Z"/><rect width="32" height="178" x="469.363" y="241" fill="#fff" rx="4"/><path fill="#fff" d="M479.353 453.192c-1.035 0-1.883-.315-2.544-.944s-1.029-1.493-1.104-2.592l1.392-.144c.053.811.277 1.408.672 1.792.395.384.923.576 1.584.576.757 0 1.307-.251 1.648-.752.352-.501.528-1.221.528-2.16v-5.856h-4.416v-1.264h5.824v7.2c0 .864-.144 1.605-.432 2.224-.277.619-.683 1.093-1.216 1.424-.533.331-1.179.496-1.936.496Zm7.74-.064c-.565 0-1.056-.112-1.472-.336a2.351 2.351 0 0 1-.96-1.024c-.213-.448-.32-1.003-.32-1.664v-4.992h1.344v4.512c0 .523.064.96.192 1.312.139.341.341.597.608.768.267.16.597.24.992.24.437 0 .805-.101 1.104-.304.309-.213.544-.533.704-.96.16-.427.24-.976.24-1.648v-3.92h1.344V453h-1.344v-1.68h.336c-.224.587-.581 1.035-1.072 1.344-.491.309-1.056.464-1.696.464Zm6.878 0c-.48 0-.869-.149-1.168-.448-.299-.299-.448-.773-.448-1.424v-9.408h1.344V451c0 .309.064.533.192.672a.663.663 0 0 0 .512.208c.096 0 .203-.011.32-.032.117-.021.24-.053.368-.096v1.152a2.526 2.526 0 0 1-.576.16 2.65 2.65 0 0 1-.544.064Z"/><rect width="32" height="140" x="533.091" y="279" fill="#343434" rx="4"/><path fill="#fff" d="m536.585 453 4.256-11.152h1.12L546.217 453h-1.536l-3.264-9.136-3.28 9.136h-1.552Zm2.368-2.624.432-1.264h4.032l.464 1.264h-4.928Zm10.555 2.752c-.565 0-1.056-.112-1.472-.336a2.351 2.351 0 0 1-.96-1.024c-.213-.448-.32-1.003-.32-1.664v-4.992h1.344v4.512c0 .523.064.96.192 1.312.139.341.342.597.608.768.267.16.598.24.992.24.438 0 .806-.101 1.104-.304.31-.213.544-.533.704-.96.16-.427.24-.976.24-1.648v-3.92h1.344V453h-1.344v-1.68h.336c-.224.587-.581 1.035-1.072 1.344-.49.309-1.056.464-1.696.464Zm8.478 3.28c-1.13 0-2.026-.208-2.688-.624-.661-.416-.992-.992-.992-1.728v-.208c.011-.085.027-.165.048-.24l1.968-1.424.464.32-1.12 1.392a.51.51 0 0 0-.016.112v.096c0 .427.224.741.672.944.448.213 1.003.32 1.664.32.587 0 1.072-.085 1.456-.256.384-.16.576-.427.576-.8a.75.75 0 0 0-.192-.528c-.117-.128-.293-.229-.528-.304a5.422 5.422 0 0 0-.8-.192 32.274 32.274 0 0 0-1.04-.16c-.48-.075-.949-.181-1.408-.32a2.978 2.978 0 0 1-1.12-.608c-.288-.267-.432-.619-.432-1.056 0-.373.128-.715.384-1.024a3.13 3.13 0 0 1 1.04-.768l.864.56c-.362.085-.618.219-.768.4a.917.917 0 0 0-.224.624c0 .203.07.368.208.496.15.128.358.229.624.304.278.064.608.123.992.176.512.075.992.155 1.44.24.448.085.843.208 1.184.368.352.149.624.352.816.608.192.267.288.608.288 1.024 0 .725-.298 1.28-.896 1.664-.597.395-1.418.592-2.464.592Zm-.192-5.872c-.608 0-1.146-.117-1.616-.352a2.737 2.737 0 0 1-1.104-.976 2.662 2.662 0 0 1-.384-1.424c0-.555.134-1.04.4-1.456a2.84 2.84 0 0 1 1.104-.992 3.42 3.42 0 0 1 1.552-.352 3.28 3.28 0 0 1 1.52.352c.459.235.827.565 1.104.992.278.427.416.928.416 1.504 0 .544-.128 1.019-.384 1.424s-.608.72-1.056.944c-.448.224-.965.336-1.552.336Zm-.032-1.104c.534 0 .944-.16 1.232-.48.299-.331.448-.731.448-1.2 0-.501-.154-.907-.464-1.216-.309-.309-.714-.464-1.216-.464-.512 0-.928.16-1.248.48-.32.309-.48.704-.48 1.184s.155.885.464 1.216c.31.32.731.48 1.264.48Zm2.512-2.848-.976-.656 1.664-1.376.688.848-1.376 1.184Z"/><rect width="32" height="197" x="596.818" y="222" fill="#343434" rx="4"/><path fill="#fff" d="M604.759 453.176c-1.12 0-2.037-.293-2.752-.88-.715-.587-1.152-1.365-1.312-2.336l1.376-.336c.117.747.421 1.317.912 1.712.501.384 1.109.576 1.824.576.416 0 .789-.08 1.12-.24.331-.16.592-.384.784-.672.192-.299.288-.635.288-1.008 0-.395-.107-.72-.32-.976-.213-.256-.512-.48-.896-.672a13.26 13.26 0 0 0-1.312-.576 10.639 10.639 0 0 1-1.632-.768c-.459-.277-.816-.608-1.072-.992-.256-.395-.384-.875-.384-1.44s.139-1.067.416-1.504a2.808 2.808 0 0 1 1.168-1.024c.501-.256 1.083-.384 1.744-.384.704 0 1.328.16 1.872.48.544.32.981.795 1.312 1.424l-1.12.688c-.245-.437-.544-.768-.896-.992a2.138 2.138 0 0 0-1.216-.352c-.363 0-.688.069-.976.208a1.649 1.649 0 0 0-.656.576c-.16.245-.24.528-.24.848 0 .341.096.635.288.88.192.235.469.443.832.624s.8.368 1.312.56a9.846 9.846 0 0 1 1.68.8c.469.288.832.635 1.088 1.04.267.395.4.885.4 1.472 0 .629-.155 1.189-.464 1.68-.309.491-.736.88-1.28 1.168-.544.277-1.173.416-1.888.416Zm8.039-.048c-.618 0-1.162-.101-1.632-.304a3.269 3.269 0 0 1-1.152-.88 4.119 4.119 0 0 1-.688-1.28 5.314 5.314 0 0 1-.224-1.552c0-.544.075-1.061.224-1.552.15-.501.368-.944.656-1.328a3.228 3.228 0 0 1 1.12-.912c.448-.224.971-.336 1.568-.336.608 0 1.131.107 1.568.32.448.203.811.485 1.088.848.288.363.502.768.64 1.216.139.448.208.912.208 1.392 0 .043-.005.144-.016.304 0 .149-.01.283-.032.4h-5.68c.032.768.256 1.365.672 1.792.416.427.982.64 1.696.64.459 0 .859-.075 1.2-.224.342-.149.662-.389.96-.72l.944.832a4.675 4.675 0 0 1-.912.768c-.32.192-.661.336-1.024.432a4.497 4.497 0 0 1-1.184.144Zm2.032-4.352a1.02 1.02 0 0 0 .032-.256 2.174 2.174 0 0 0-.128-1.024 1.931 1.931 0 0 0-.4-.688 1.67 1.67 0 0 0-.672-.496c-.266-.128-.586-.192-.96-.192-.458 0-.853.107-1.184.32-.33.213-.586.496-.768.848a3.02 3.02 0 0 0-.32 1.168h4.848l-.448.32Zm2.481 7.488v-11.152h1.344v2.352l-.432-.304c.139-.459.341-.848.608-1.168a2.69 2.69 0 0 1 1.008-.752 3.352 3.352 0 0 1 1.344-.256c.715 0 1.339.181 1.872.544.544.352.965.837 1.264 1.456.299.608.448 1.301.448 2.08 0 .821-.16 1.541-.48 2.16a3.529 3.529 0 0 1-1.296 1.408 3.411 3.411 0 0 1-1.808.496c-.501 0-.949-.091-1.344-.272a2.781 2.781 0 0 1-.992-.752 2.964 2.964 0 0 1-.576-1.088l.384-.368v5.616h-1.344Zm3.648-4.368c.48 0 .901-.117 1.264-.352a2.42 2.42 0 0 0 .864-1.008c.213-.427.32-.917.32-1.472 0-.555-.107-1.045-.32-1.472a2.315 2.315 0 0 0-.864-.992 2.205 2.205 0 0 0-1.264-.368c-.48 0-.901.123-1.264.368a2.35 2.35 0 0 0-.848.992c-.203.427-.304.917-.304 1.472 0 .555.101 1.045.304 1.472.203.427.485.763.848 1.008.363.235.784.352 1.264.352Z"/><rect width="32" height="152" x="660.546" y="267" fill="#343434" rx="4"/><path fill="#fff" d="M670.407 453.192c-1.024 0-1.925-.24-2.704-.72-.768-.48-1.37-1.152-1.808-2.016-.426-.864-.64-1.872-.64-3.024 0-1.163.214-2.176.64-3.04.438-.864 1.04-1.536 1.808-2.016.779-.48 1.68-.72 2.704-.72 1.046 0 1.958.24 2.736.72.779.48 1.382 1.152 1.808 2.016.438.864.656 1.877.656 3.04 0 1.152-.218 2.16-.656 3.024-.437.864-1.045 1.536-1.824 2.016-.778.48-1.685.72-2.72.72Zm0-1.344c.779 0 1.446-.181 2-.544.566-.363 1.003-.875 1.312-1.536.31-.661.464-1.44.464-2.336 0-.907-.154-1.691-.464-2.352-.309-.661-.746-1.173-1.312-1.536-.554-.363-1.221-.544-2-.544-.757 0-1.418.181-1.984.544-.565.352-1.002.859-1.312 1.52-.298.661-.448 1.451-.448 2.368 0 .907.15 1.691.448 2.352.31.661.747 1.173 1.312 1.536.566.352 1.227.528 1.984.528Zm9.649 1.28c-.587 0-1.109-.107-1.568-.32a3.292 3.292 0 0 1-1.136-.88 4.096 4.096 0 0 1-.704-1.312 5.027 5.027 0 0 1-.24-1.568c0-.544.08-1.061.24-1.552.16-.491.395-.923.704-1.296a3.208 3.208 0 0 1 1.136-.896c.459-.213.981-.32 1.568-.32.747 0 1.397.181 1.952.544.565.363.981.917 1.248 1.664l-1.2.464a2.35 2.35 0 0 0-.72-1.088c-.331-.277-.757-.416-1.28-.416s-.955.139-1.296.416a2.548 2.548 0 0 0-.768 1.072c-.16.437-.24.907-.24 1.408 0 .501.08.976.24 1.424.171.437.427.795.768 1.072.341.267.773.4 1.296.4s.949-.133 1.28-.4c.331-.277.571-.645.72-1.104l1.2.464c-.267.747-.683 1.307-1.248 1.68-.555.363-1.205.544-1.952.544Zm6.825 0c-.373 0-.714-.069-1.024-.208a1.607 1.607 0 0 1-.704-.704c-.17-.32-.256-.731-.256-1.232V443l1.376-.768v8.4c0 .437.07.779.208 1.024.139.235.39.352.752.352.107 0 .235-.011.384-.032.15-.032.31-.069.48-.112v1.056c-.202.075-.41.128-.624.16-.202.032-.4.048-.592.048Zm-3.616-6.96v-1.056h4.832v1.056h-4.832Z"/><rect width="32" height="226" x="724.272" y="193" fill="#343434" rx="4"/><path fill="#fff" d="M728.251 453v-11.152h1.488l5.712 9.328h-.32v-9.328h1.408V453h-1.52l-5.68-9.344h.32V453h-1.408Zm13.372.128c-.736 0-1.397-.171-1.984-.512a3.73 3.73 0 0 1-1.36-1.456c-.331-.619-.496-1.323-.496-2.112 0-.789.16-1.488.48-2.096a3.613 3.613 0 0 1 1.36-1.44c.587-.352 1.253-.528 2-.528.747 0 1.403.176 1.968.528a3.613 3.613 0 0 1 1.36 1.44c.331.608.496 1.307.496 2.096 0 .789-.165 1.493-.496 2.112a3.761 3.761 0 0 1-1.36 1.44c-.576.352-1.232.528-1.968.528Zm0-1.2c.501 0 .933-.117 1.296-.352a2.42 2.42 0 0 0 .864-1.008c.203-.437.304-.944.304-1.52 0-.587-.101-1.093-.304-1.52a2.303 2.303 0 0 0-.864-1.008c-.363-.235-.795-.352-1.296-.352-.512 0-.955.123-1.328.368a2.315 2.315 0 0 0-.864.992c-.203.427-.304.933-.304 1.52 0 .576.101 1.083.304 1.52.203.427.491.763.864 1.008.373.235.816.352 1.328.352Zm7.192 1.072-3.232-7.888h1.488l2.304 6.144 2.32-6.144h1.472L749.951 453h-1.136Z"/><rect width="32" height="178" x="788" y="241" fill="#343434" rx="4"/><path fill="#fff" d="M792.15 453v-11.152h3.088c1.824 0 3.237.496 4.24 1.488 1.003.981 1.504 2.373 1.504 4.176 0 1.771-.496 3.131-1.488 4.08-.992.939-2.416 1.408-4.272 1.408h-3.072Zm1.408-1.296h1.536c.949 0 1.755-.139 2.416-.416a3.054 3.054 0 0 0 1.52-1.36c.352-.629.528-1.451.528-2.464s-.176-1.835-.528-2.464a3.122 3.122 0 0 0-1.488-1.408c-.64-.299-1.413-.448-2.32-.448h-1.664v8.56Zm11.914 1.424c-.618 0-1.162-.101-1.632-.304a3.269 3.269 0 0 1-1.152-.88 4.119 4.119 0 0 1-.688-1.28 5.314 5.314 0 0 1-.224-1.552c0-.544.075-1.061.224-1.552.15-.501.368-.944.656-1.328a3.228 3.228 0 0 1 1.12-.912c.448-.224.971-.336 1.568-.336.608 0 1.131.107 1.568.32.448.203.811.485 1.088.848.288.363.502.768.64 1.216.139.448.208.912.208 1.392 0 .043-.005.144-.016.304 0 .149-.01.283-.032.4h-5.68c.032.768.256 1.365.672 1.792.416.427.982.64 1.696.64.459 0 .859-.075 1.2-.224.342-.149.662-.389.96-.72l.944.832a4.675 4.675 0 0 1-.912.768c-.32.192-.661.336-1.024.432a4.497 4.497 0 0 1-1.184.144Zm2.032-4.352a1.02 1.02 0 0 0 .032-.256 2.174 2.174 0 0 0-.128-1.024 1.931 1.931 0 0 0-.4-.688 1.67 1.67 0 0 0-.672-.496c-.266-.128-.586-.192-.96-.192-.458 0-.853.107-1.184.32-.33.213-.586.496-.768.848a3.02 3.02 0 0 0-.32 1.168h4.848l-.448.32Zm5.761 4.352c-.587 0-1.11-.107-1.568-.32a3.292 3.292 0 0 1-1.136-.88 4.077 4.077 0 0 1-.704-1.312 5.027 5.027 0 0 1-.24-1.568c0-.544.08-1.061.24-1.552.16-.491.394-.923.704-1.296a3.208 3.208 0 0 1 1.136-.896c.458-.213.981-.32 1.568-.32.746 0 1.397.181 1.952.544.565.363.981.917 1.248 1.664l-1.2.464a2.365 2.365 0 0 0-.72-1.088c-.331-.277-.758-.416-1.28-.416-.523 0-.955.139-1.296.416a2.53 2.53 0 0 0-.768 1.072c-.16.437-.24.907-.24 1.408 0 .501.08.976.24 1.424.17.437.426.795.768 1.072.341.267.773.4 1.296.4.522 0 .949-.133 1.28-.4.33-.277.57-.645.72-1.104l1.2.464c-.267.747-.683 1.307-1.248 1.68-.555.363-1.206.544-1.952.544Z"/><defs><filter id="a" width="187" height="118" x="392.5" y="116.5" color-interpolation-filters="sRGB" filterUnits="userSpaceOnUse"><feFlood flood-opacity="0" result="BackgroundImageFix"/><feColorMatrix in="SourceAlpha" result="hardAlpha" values="0 0 0 0 0 0 0 0 0 0 0 0 0 0 0 0 0 0 127 0"/><feOffset/><feGaussianBlur stdDeviation="3.5"/><feComposite in2="hardAlpha" operator="out"/><feColorMatrix values="0 0 0 0 0.7625 0 0 0 0 0.7625 0 0 0 0 0.7625 0 0 0 0.5 0"/><feBlend in2="BackgroundImageFix" result="effect1_dropShadow_539_33924"/><feBlend in="SourceGraphic" in2="effect1_dropShadow_539_33924" result="shape"/></filter></defs></svg>